<?xml version="1.0" encoding="utf-8"?>
<!-- Generator: Adobe Illustrator 16.0.0, SVG Export Plug-In . SVG Version: 6.00 Build 0)  -->
<!DOCTYPE svg PUBLIC "-//W3C//DTD SVG 1.1//EN" "http://www.w3.org/Graphics/SVG/1.1/DTD/svg11.dtd">
<svg version="1.1" id="Layer_1" xmlns="http://www.w3.org/2000/svg" xmlns:xlink="http://www.w3.org/1999/xlink" x="0px" y="0px"
	 width="1000px" height="1000px" viewBox="-195.3 -103.2 1000 1000" enable-background="new -195.3 -103.2 1000 1000"
	 xml:space="preserve">
<g id="Layer_x0020_1">
	
		<radialGradient id="SVGID_1_" cx="336.6152" cy="386.0962" r="120.224" gradientTransform="matrix(1 0 0 1.2 0 -77.2193)" gradientUnits="userSpaceOnUse">
		<stop  offset="0.2806" style="stop-color:#4A7FE1"/>
		<stop  offset="1" style="stop-color:#305292"/>
	</radialGradient>
	<path fill="url(#SVGID_1_)" d="M479.3,404.9c2-1.5,6.1-8.9,6.2-12.4c-7.1-23-30.2-51.9-48.1-64.7l-21.7-15.3
		c-7.3-1.9-13.6-5-22.1-6.7c-10.4-2.1-16.3-1.7-26.9-1.7c-22.5,0.1-53,16.2-68.9,25.6c-20.4,12-63.8,30.7-63.8,30.7
		c-0.9,3.1-1,3.1-0.1-0.1c-6.4,2.3-14.5,3.7-21.5,4.5c-9.4,1.1-16.2-0.1-24.8,0c3.4,4,30.5,30.5,34.3,32v0.1
		c1.9-3.9,2.1-3.9,0.1,0.1c4.8,6.9,40.9,32.1,47.9,36.4c36.9,22.6,83.2,43.8,129,30.7c14.8-4.2,29.2-12.7,41.4-21.2
		c2-1.4,4.2-3,6-4.4 M444.6,426.7c-0.4,0.5-0.8,1-1.2,1.4C443.8,427.6,444.2,427.2,444.6,426.7L444.6,426.7z"/>
	<path fill="#E8E7E3" d="M373.2,275.8c2.2,1.1,7.3,7.3,10,9.7l29.7,24.4c1.6,1.2,1.9,1.4,3,2.5l21.7,15.3
		c17.9,12.9,41,41.8,48.1,64.7c2.6,5.3,3.9,12.2,4.9,18.5c0.6,3.5,0.9,7.2,1.1,10.9l-0.2,10.4c-0.4,1.6,0,0.6-0.7,1.7
		c-2.3-1.4-1.2-1.7-2.7-7.3c-2.7-9.9-5-13.2-8.4-21.8c-1.5-2.1-2.7-4.5-4.1-6.8c-1.2-2-3.5-4.7-4-6.8l-16.8-19.4
		c-2.3-3-6-6.6-8.5-9.1c-3.2-3.2-6.3-5.8-9.4-8.9C430,347,406.4,327,396,323c-6.8,4.5-7.6,9.8-11.5,17.9
		c-4.6,29.1,7.8,40.7,28.4,56.9l16.6,12.7c5.2,4,14.4,11.7,17.4,16.6c1.6,0.3,1.5,0.9,2.7,2.4c1.1,1.4,1.8,1.9,2.7,3.3l4.3,6.3
		c4.1,3.9,9.6,17.6,10.5,25.1c4.4,36-31.4,44.2-45.2,24.3c-2.8-4-3.1-9.9-7.1-11c-3.7,0.6-5.8,1.6-8,3.4c-2.7,2.2-3.5,4.1-5.6,6.1
		c-2,7.5-5,13.9,0.3,23.8c5.3,9.9,13.2,10.5,16.6,13.4c9.2,0.2,10.9,2.1,23-3.1c9.3-4,14.6-9.9,20.3-14.3
		c7.2-5.6,10.4-11.7,17.5-17.7c2.7-2.2,5.6-4,8.3-6c19.3-14.6,31.3-55.3,31.2-80.8c-0.1-20,0-31.3-4.8-50.5
		c-3.5-14.2-9.1-29.1-15.8-40.2c-3.7-6.2-6.6-11.6-11.2-16.8c-8.8-10-18.6-20.2-32.2-23.8c-9.5-2.6-16.1-1.4-24.6,0.6
		c-1-1.5-18.6-15-24.3-20.7c-1.7-1.7-2.6-2.2-4.2-3.6L384,227c-4.5-6.3-8-12-11.6-19.1c-6.5-13-11.7-29.8-12.2-48.5
		c-0.1-3.2-0.6-3.3-0.7-6.5l1.7-21.2c6.1-42.6,32.4-71.7,76.5-75.2c33.9-2.7,57.2,7.2,80.8,25.3c2.5,1.9,5.9,5.8,8.5,7
		c0.4-0.5,15-30.4,28.3-42.6c0.9-0.9,0-0.2,1.3-1c0.2,30,23.5,38.6,27.8,67l0.6,0.7c0-7.4,0.1-13.2-0.9-19.7
		c-4.2-25.2-19.2-50.6-39.5-66.1c-7.9-6-16.6-11.7-26.7-15.6c-22.6-9-50-9.6-72.6-2.8c-15,4.5-29.5,12-41.9,21.3l-11.7,9.7
		c-2.2,2.2-3.5,2.9-5.5,4.9c-6.7,6.4-18.3,21.7-23.1,29c-2.8,4.2-5.8,8.7-8.2,13.3c-11.5,22.8-17.1,36.9-21.5,63.2
		c-1.8,10.7-2.5,27.7-0.9,39.7c3,21,5.1,29.9,14.5,48.7c4.5,9,7,12.2,12.2,19.7c4.3,6.3,9.1,11.2,14,17.7L373.2,275.8z"/>
	<path fill="#55D6A3" d="M401.2,487.1c2.1-2,2.9-3.9,5.6-6.1c2.2-1.8,4.3-2.7,8-3.4c0.9-1.2,0.1-0.4,1.4-1.5c0.5-0.4,1-0.8,1.4-1.2
		l38.9-35.7l-4.3-6.3c-0.6,2.4-3.7,4-5.8,5.6c-1.8,1.3-4,3-6,4.4c-12.2,8.4-26.5,16.9-41.4,21.2c-45.9,13.1-92.2-8.1-129-30.7
		c-6.9-4.2-43.1-29.4-47.9-36.4c-3.9-1.6-31-28-34.3-32c8.6-0.1,15.6,1,24.8,0c7.1-0.8,15.1-2.2,21.5-4.5
		c25-8.4,43.3-18.8,63.7-30.7c15.9-9.4,46.3-25.5,68.9-25.6c2.9-1.5,7.8-0.6,11.4-1.3c-7.5-0.3-38.9-17.3-86.5-3.5
		c-47.4,13.7-83.5,48.9-129.9,72.1c-26.6,13.3-47.5,18.8-82,19c1.8,3.2,29.6,25.5,31.5,27c72.1,56.4,188.8,126.7,281.2,74.7
		C394.7,490.7,399.8,486.8,401.2,487.1z"/>
	<path fill="#50AEA0" d="M418.2,524.2c-3.4-2.9-11.3-3.4-16.6-13.4c-5.3-9.9-2.4-16.3-0.3-23.8c-1.4-0.3-6.5,3.7-8.8,5
		C300,544,183.4,473.7,111.2,417.3c-1.9-1.5-29.7-23.8-31.5-27c34.5-0.2,55.4-5.7,82-19c46.3-23.2,82.4-58.4,129.9-72.1
		c47.7-13.8,79.1,3.2,86.5,3.5c-3.6,0.7-8.5-0.2-11.4,1.3c10.5-0.1,16.4-0.4,26.9,1.7c8.6,1.7,14.8,4.8,22.1,6.7
		c-0.9-1.1-1.3-1.3-3-2.5l-29.7-24.4c-2.7-2.3-7.8-8.6-10-9.7c-10.5-1.4-11.5-2.7-25.3-3.8c-27.5-2.2-50.8,1.9-76,12
		c-15.2,6-35.5,16.6-48.9,25.4l-63.6,40.7c-22,13.9-35.3,19.7-59.4,29.2c-10.1,4-24.6,7.3-35.9,9.1c-4.2,0.6-9.3,1.6-13.4,1.6
		c-6.3,0.1-7.1,0.6-13,0.6c-6.4,0-7.4-0.6-13-0.6c0.6,2.4,11,10.7,13.5,13.2c1.8,1.8,2.7,3,4.7,4.4c3.2,2.4,6.4,5.9,9.6,8.6
		c1.9,1.6,3,2.7,5,4.2L82,440.6c16.9,13.7,34.3,26.1,52.4,38.2c3.7,2.5,7.3,4.8,11.1,7.2c15.1,9.4,29.7,17.9,46.1,26.1
		c22,11,52.8,24.3,78.1,30c49.7,11.4,91.2,11.1,136.4-11.3c4-2,7.7-4.5,11.7-6.6H418.2z"/>
	<path fill="#50AEA0" d="M414.8,477.6c3.9,1,4.2,7,7.1,11c13.8,19.9,49.6,11.7,45.2-24.3c-0.9-7.6-6.4-21.2-10.5-25.1l-38.9,35.7
		c-0.5,0.4-1,0.7-1.4,1.2C414.9,477.2,415.6,476.4,414.8,477.6z"/>
	<path fill="#FA6A00" d="M536.7,100.9c11.1,13.7,22.2,35,23.4,52.6c0.4,6.3-0.9,4.7,2,9.1c3.8,0,3.8-0.4,5.5-3
		c8.5-12.9,17.3-30.3,17.3-46.7l-0.6-0.7l-23.9-27.3C555.7,86.6,542.3,97.9,536.7,100.9L536.7,100.9z"/>
	<path d="M526.9,88.8c1.2,2.2,2.9,4,4.8,5.9c1.5,1.4,4.1,4.5,5,6.2c5.8-3,19.1-14.3,23.8-16l23.9,27.3c-4.3-28.4-27.6-37-27.8-67
		c-1.3,0.8-0.3,0.1-1.3,1C542,58.4,527.4,88.3,526.9,88.8L526.9,88.8z"/>
	<path fill="#50AEA0" d="M479.2,404.9c3.5,8.6,5.7,11.9,8.4,21.8c1.5,5.5,0.5,5.8,2.7,7.3c0.7-1,0.3-0.1,0.7-1.7l0.2-10.4
		c-0.1-3.7-0.5-7.4-1.1-10.9c-1-6.2-2.3-13.2-4.9-18.5C485.3,395.9,481.1,403.3,479.2,404.9L479.2,404.9z"/>
</g>
<g>
	<path fill-rule="evenodd" clip-rule="evenodd" fill="#747474" d="M169.9,615c-0.1,1.9-0.1,3.9-0.2,5.8c0,0.8-0.2,1.7-0.7,2.3
		c-0.2,0.3-0.6,0.6-1,0.6s-0.8-0.3-0.9-0.6c-0.4-1-0.7-2.1-0.9-3.2c-0.3-3-1-6-1.9-8.9c-0.6-2.3-1.5-4.5-2.3-6.6
		c-0.9-2.3-2.3-4.4-4.1-6.2c-3.4-3.5-8-4.3-12.6-2.5c-2.5,1-4.6,2.6-6.3,4.6c-3.3,3.7-5.4,8-6.7,12.7c-0.7,2.8-0.8,5.7-1,8.6
		c-0.2,6.1,1.2,11.8,4,17.2c2.5,5,5.5,9.6,9.1,13.8c3.5,4.1,7,8.2,10.5,12.3c3.9,4.5,7.2,9.5,9.8,14.9c1.4,2.9,2.3,5.9,3,9
		c0.2,0.8,0.2,1.6,0.3,2.5c0.3,3.3,0.3,6.7-0.1,9.9c-0.9,7.6-3.5,14.5-8.5,20.4c-3.8,4.5-8.7,7.1-14.6,8.1c-1.1,0.2-2.2,0.3-3.3,0.5
		c-2.9,0.5-5.8,0.1-8.6-0.7c-1.9-0.5-3.5-1.6-4.7-3.2c-1.4-1.9-1.8-4-1.3-6.3c0.2-0.9,1.1-1.7,2.1-1.7c1.4,0,2.7,0.2,4.1,0.6
		c2.1,0.6,4.3,1.1,6.4,1.6c3.7,0.9,7.4,0.6,11.1-0.4c3.3-1,5.9-2.9,7.8-5.8c3-4.6,3.9-9.7,3.2-15.1c-0.6-4.8-2.1-9.4-4.5-13.7
		c-2.7-4.7-5.9-9.1-9.6-13c-3.9-4.1-7.8-8.2-11.7-12.3c-4.1-4.2-7.4-9-10.1-14.2c-2-3.8-3.5-7.9-4.2-12.1c-0.4-2.3-0.5-4.7-0.5-7
		c-0.1-5,0.3-9.9,1.9-14.7c2.3-6.9,6-13,11.3-18.1c3.5-3.3,7.5-5.6,12.3-6.5c7.1-1.3,14.3,1.2,18.4,7.5c1.9,2.9,3.1,6.2,3.9,9.5
		C169.7,608.1,169.8,611.6,169.9,615z"/>
	<path fill-rule="evenodd" clip-rule="evenodd" fill="#747474" d="M190.2,656.5c0-4.3,0-8.6,0-12.9c0-3.3,0-6.6,0.5-9.9
		c0.1-1,0.2-1.9,0.2-2.9c-0.1-4.7,0.5-9.4,1.1-14.1c0.7-5.3,1.4-10.7,3.1-15.8c0.6-1.7,1.1-3.4,1.9-5c0.6-1.4,1.5-2.6,2.4-3.9
		c0.7-1,1.7-1.7,2.9-2.2c2-0.8,3.8-0.4,5.1,1.4c0.5,0.7,0.9,1.4,1.2,2.1c0.9,2.2,1.5,4.4,1.8,6.8c0.7,6.1,0.2,12.1-1.3,18.1
		c-2.1,8.3-4.9,16.4-8.6,24.2c-2,4.4-1.9,3.1-1.7,8.4c0.1,3.6,0.4,7.2,0.5,10.8c0.1,1.9,0.1,3.9,0.2,5.8c0.1,4.8,0.1,9.7,0.7,14.5
		c0.2,1.4,0.1,2.8,0.2,4.1c0.1,3.2,0.2,6.4,0.6,9.5c0.2,1.8,0.2,3.6,0.3,5.4c0.1,0.7,0.2,1.4,0.4,2c0.1,0.2,0.4,0.4,0.6,0.5
		c0.2,0.1,0.6,0,0.7-0.2c0.4-0.7,0.9-1.4,1.2-2.2c1.8-4.2,3.8-8.3,6-12.3c1.7-3,3.6-5.9,5.7-8.6c1.4-1.7,2.9-3.3,4.9-4.5
		c1-0.6,2-1,3.1-1c1.7-0.1,3.3,0.3,4.7,1.3c1.7,1.2,3.1,2.8,4.1,4.6c1.1,1.8,1.9,3.7,2.6,5.6c1.6,4.1,2.7,8.4,3.8,12.7
		c1.4,5.2,2.6,10.5,3.9,15.7c0.2,0.8,0.4,1.6,0.5,2.4c0.2,2-0.7,3.5-2.2,4.6c-1.6,1.2-4.1,0.9-5.1-0.8c-0.7-1.2-1.4-2.4-1.8-3.7
		c-1-2.7-1.9-5.5-2.7-8.3c-1.9-6.6-3.8-13.3-5.3-20c-0.4-1.6-0.8-3.2-1.6-4.7c-0.5-0.9-1-1.6-1.8-2.2c-1.3-1-3-1-4.1,0.3
		c-0.7,0.8-1.4,1.8-1.8,2.7c-0.8,1.7-1.6,3.5-2.3,5.3c-1.9,5.2-4.4,10.2-7.2,14.9c-0.9,1.5-2,3-3.1,4.4c-0.6,0.7-1.4,1.4-2.2,1.9
		c-2.4,1.5-5.2,1.1-6.9-1.5c-0.5-0.8-0.9-1.7-1.2-2.6c-0.6-2-1.2-4-1.5-6c-0.4-2.6-1.1-5.1-1.1-7.8c-1.1-5.6-0.7-11.3-1.4-16.9
		c-0.3-2-0.1-4.1-0.1-6.2C190.2,665.7,190.2,661.1,190.2,656.5C190.2,656.5,190.2,656.5,190.2,656.5z M206.2,604.7
		c-0.1-2.3-0.1-4.7-0.2-7c0-1.4-0.4-2.7-1.1-3.9c-0.6-1.2-2.3-1.4-3.1-0.3c-0.3,0.4-0.7,0.9-0.9,1.4c-0.4,1.2-0.9,2.3-1.2,3.5
		c-0.9,4.3-1.5,8.7-1.5,13.1c0,7.2,0.2,14.4,0.6,21.5c0,0.4,0.2,0.8,0.3,1.2c0.1,0.3,0.3,0.5,0.6,0.4c0.1,0,0.3,0,0.4-0.1
		c0.3-0.4,0.7-0.9,0.9-1.4C204,623.8,206.3,614.5,206.2,604.7z"/>
	<path fill-rule="evenodd" clip-rule="evenodd" fill="#747474" d="M286.4,673.8c0.1-2.5,0.1-5,0.2-7.5c0-0.7,0.3-1.3,0.8-1.8
		c0.3-0.4,1.1-0.5,1.5-0.1c0.4,0.4,0.9,0.8,1.1,1.2c0.7,1.5,1.3,3,1.8,4.6c2.2,6.5,4,13.2,5.8,19.9c0.8,3.1,1.7,6.1,2.6,9.2
		c0.3,0.9,0.8,1.8,1.2,2.6c0.4,0.7,1.6,0.8,2.2,0.4c0.8-0.5,1.5-1.2,2.1-2c1.4-2,2.9-4.1,4.3-6.1c2.3-3.3,4.5-6.6,7.1-9.7
		c0.8-1,1.6-1.9,2.5-2.8c1.6-1.5,3.5-2.2,5.6-2.3c2-0.1,3.8,0.5,5.3,1.9c1.9,1.7,3.4,3.6,4.5,5.9c1.2,2.5,2.4,5,3.5,7.5
		c0.6,1.3,1.1,2.5,1.7,3.8c0.3,0.6,0.7,1.2,1.1,1.7c0.9,1.2,2.6,1.5,3.7,0.5c1.2-0.9,2.3-2,3.3-3.1c1.7-1.8,3.2-3.8,4.8-5.7
		c1.4-1.7,3-3.3,4.8-4.6c1.4-1,3-1.3,4.7-1.1c0.9,0.1,1.6,0.4,2.2,1c0.8,0.9,1.7,1.9,2.3,2.9c1,1.9,2,3.9,2.8,6
		c2.6,6.4,4.2,13.1,5.7,19.9c0.6,2.9,1,5.7,0.8,8.6c0,0.5-0.1,1.1-0.3,1.6c-0.2,0.9-1.4,1.5-2.3,1.3c-1-0.2-1.8-0.7-2.5-1.4
		c-1-1-1.6-2.2-2.2-3.5c-1.4-3-2.2-6.2-3-9.5c-1.1-4.4-2.2-8.9-3.3-13.3c-0.3-1.2-0.7-2.4-1.2-3.5c-0.3-0.6-0.7-1.2-1.1-1.7
		c-1-1.1-2.5-1.4-3.8-0.9c-1.3,0.5-2.4,1.4-3.3,2.5c-2.2,2.7-4.3,5.4-6.5,8.1c-1.5,2-3.1,3.9-5,5.5c-0.8,0.7-1.7,1.3-2.7,1.9
		c-0.8,0.5-1.6,0.3-2.3-0.2c-1.1-0.7-1.8-1.7-2.4-2.8c-1.2-2.5-2.3-5-3.4-7.6c-1.1-2.5-2.1-5.1-3.1-7.7c-0.5-1.1-1-2.3-1.7-3.3
		c-0.5-0.8-1.2-1.5-1.9-2.2c-1.4-1.2-3.5-1.2-5-0.1c-1.3,0.9-2.2,2.1-2.9,3.5c-1.9,3.5-3.9,7-5.8,10.5c-2.4,4.3-4.9,8.7-7.4,13
		c-0.8,1.3-1.7,2.5-2.6,3.8c-0.7,0.9-1.5,1.6-2.5,2.1c-1.1,0.6-2.2,0.4-3-0.6c-0.8-1-1.2-2.2-1.6-3.4c-1.5-4.9-2.9-9.8-3.9-14.8
		c-0.9-4.2-1.9-8.4-2.4-12.6C287,684.3,286.1,679,286.4,673.8z"/>
	<path fill-rule="evenodd" clip-rule="evenodd" fill="#747474" d="M393.5,675.8c-0.1-3.1-0.2-6.3,0.2-9.5c0.2-1.5,0.6-2.2,1.4-2.2
		c1.2,0,1.6,1,2,1.8c0.5,1,0.9,2,1.2,3.1c1.1,3.4,2.2,6.8,3.2,10.3c1.4,5.1,2.7,10.1,4.1,15.2c0.5,2,1.1,4,1.8,5.9
		c0.2,0.6,0.7,1.2,1.1,1.7c0.3,0.4,1.2,0.5,1.5,0.3c0.6-0.4,1.2-0.7,1.6-1.2c1-1.2,1.9-2.4,2.7-3.6c1.7-2.4,3.3-4.8,4.9-7.2
		c1.6-2.2,3.3-4.4,5-6.6c0.7-0.9,1.5-1.6,2.3-2.4c1.6-1.5,3.6-2.1,5.7-2.1c1.7,0,3.2,0.5,4.6,1.6c2.1,1.8,3.8,4,5,6.5
		c1.4,2.9,2.7,5.8,4,8.6c0.4,0.9,0.8,1.8,1.2,2.6c0.3,0.6,0.8,1.1,1.2,1.6c0.7,0.8,2.2,1,3.1,0.4c0.9-0.6,1.8-1.3,2.5-2.1
		c1.7-1.8,3.3-3.8,4.9-5.6c1.2-1.3,2.4-2.7,3.6-4c0.7-0.7,1.5-1.3,2.2-1.8c1.3-0.9,2.7-1.3,4.3-1.2c1.2,0.1,2.2,0.5,2.9,1.4
		c0.6,0.6,1.1,1.3,1.5,2c1.1,1.8,2,3.6,2.8,5.5c2.4,6,4.2,12.3,5.6,18.6c0.5,2.4,1,4.9,1.4,7.3c0.2,1.4,0.2,2.8,0.1,4.1
		c0,0.6-0.4,1.3-0.8,1.9c-0.3,0.5-1.2,0.9-1.8,0.7c-1-0.2-1.9-0.7-2.5-1.4c-0.7-0.9-1.3-1.8-1.9-2.7c-1.5-2.8-2.4-5.9-3.2-9
		c-1.1-4.4-2.2-8.9-3.3-13.3c-0.3-1.3-0.7-2.7-1.2-4c-0.3-0.9-0.9-1.7-1.4-2.5c-0.9-1.2-2.4-1.5-3.7-1c-0.9,0.3-1.8,0.8-2.4,1.5
		c-0.9,0.9-1.7,1.9-2.4,2.8c-2,2.5-4,5-5.9,7.5c-1.5,1.9-3,3.6-4.9,5.1c-2.6,2.1-3.8,2.1-6.1-1c-0.7-1-1.2-2.2-1.7-3.3
		c-0.9-2.2-1.8-4.3-2.7-6.5c-1.1-2.6-2.1-5.1-3.2-7.6c-0.6-1.4-1.4-2.7-2.6-3.7c-1.6-1.5-4-1.6-5.7-0.2c-1.2,1-2.1,2.2-2.8,3.6
		c-2.3,4.1-4.5,8.2-6.8,12.3c-2.1,3.7-4.3,7.4-6.4,11.1c-0.7,1.2-1.5,2.3-2.3,3.4c-0.7,0.9-1.5,1.6-2.5,2.1c-1,0.5-2.3,0.4-3-0.6
		c-0.5-0.7-0.9-1.4-1.2-2.2c-1-3.2-1.9-6.4-2.8-9.6c-1.5-5.5-2.8-11-3.6-16.6c-0.5-3.5-1.2-7.1-1.2-10.7
		C393.7,679.5,393.5,677.7,393.5,675.8z"/>
	<path fill-rule="evenodd" clip-rule="evenodd" fill="#747474" d="M501.6,665.9c0-3.3,0-7.2,0-11c0-1.4,0.1-2.8,0.3-4.1
		c0.2-1.6,2.6-2.5,3.9-1.5c0.3,0.2,0.6,0.6,0.8,0.9c0.3,0.8,0.5,1.6,0.7,2.4c0.2,0.6,1,1.1,1.7,0.9c1.1-0.3,2.1-0.6,3.2-0.9
		c2.9-0.8,5.8-1.7,8.8-2.3c2.3-0.5,4.7-0.5,7-0.7c0.4,0,0.8,0.1,1.2,0.1c1.5,0.2,2.5,1,3.2,2.3c0.9,1.7,0.2,3.4-1.7,3.8
		c-2,0.4-4.1,0.6-6.1,1c-3.3,0.7-6.4,1.7-9.4,3c-1.1,0.5-2.2,1.1-3.3,1.8c-1.2,0.8-1.9,2.1-1.8,3.5c0.3,3.2,0.3,6.3,0.8,9.5
		c0.6,3.4,0.8,6.9,1.2,10.3c0.3,2.5,0.6,4.9,0.9,7.4c0.4,3.4,0.9,6.8,1.3,10.3c0.6,5.4,1.3,10.7,1.4,16.1c0,1-0.1,1.9-0.3,2.9
		c-0.2,0.9-0.8,1.5-1.7,1.7c-2.3,0.6-4.4,0.2-6.1-1.6c-0.7-0.8-1.4-1.7-1.8-2.7c-0.6-1.2-1.2-2.6-1.3-3.9c-0.4-2.7-1-5.4-1-8.2
		c0-3.5-0.1-6.9-0.6-10.3c0-0.3-0.1-0.5-0.1-0.8c-0.3-7.3-0.7-14.6-1-21.9C501.7,671.1,501.6,668.8,501.6,665.9z"/>
	<path fill-rule="evenodd" clip-rule="evenodd" fill="#747474" d="M268.9,713.4c0,2.9,0,5.8,0,8.7c0,1-0.1,1.9-0.2,2.9
		c-0.1,0.7-0.6,1.2-1.3,1.5c-1.9,0.9-3.7,0.8-5.6-0.2c-0.8-0.4-1.3-1.1-1.5-1.9c-0.2-0.5-0.2-1.1-0.3-1.6c-0.2-1.8-0.4-3.6-0.6-5.4
		c0-0.1,0-0.3-0.1-0.4c-0.3-5-0.7-9.9-0.9-14.9c-0.1-3.3-0.1-6.6,0-10c0-1.9,0.2-3.9,0.3-5.8c0.1-2.6,0.4-5.2,0.4-7.9
		c0-2.8,0.6-5.5,0.9-8.2c0.1-1,0.6-1.8,1.4-2.5c0.7-0.5,1.8-0.4,2.1,0.4c0.3,0.6,0.6,1.3,0.7,1.9c0.7,4,1.3,7.9,1.9,11.9
		c0.5,3.6,1,7.1,1.4,10.7c0.1,1,0.1,1.9,0.2,2.9c0.2,1.9,0.4,3.9,0.5,5.8c0.1,1.2,0.2,2.5,0.3,3.7c0.1,2.8,0.2,5.5,0.2,8.3
		C268.8,713.4,268.9,713.4,268.9,713.4z"/>
	<path fill-rule="evenodd" clip-rule="evenodd" fill="#747474" d="M263.6,644.8c0.2,3-2.5,5.4-4.9,5.8c-1.2,0.2-2.6-0.4-3.2-1.4
		c-1.3-2.3-1.6-4.7-0.3-7.1c1.3-2.4,3.6-2.9,5.6-2.3c0.5,0.1,1,0.5,1.4,0.9C263.1,641.9,263.7,643.3,263.6,644.8z"/>
</g>
<g>
	<path fill="#737373" d="M162.1,793c1.1,0.7,2.2,1.3,3.2,1.6s2.1,0.5,3.2,0.5c1.4,0,2.5-0.3,3.3-1s1.2-1.6,1.2-2.7
		c0-1.7-1.5-3-4.4-4.1c-0.8-0.3-1.3-0.5-1.8-0.7c-1.6-0.6-2.8-1.4-3.6-2.4s-1.2-2.2-1.2-3.5c0-1.8,0.6-3.2,1.9-4.3s2.9-1.7,5-1.7
		c0.9,0,1.9,0.1,2.8,0.4s2,0.8,3,1.4v2.5c-1.1-0.7-2.1-1.2-3.1-1.6s-2-0.5-2.9-0.5c-1.3,0-2.3,0.3-3.2,1s-1.2,1.6-1.2,2.7
		c0,1,0.4,1.8,1.1,2.4s2.2,1.3,4.2,2.1c2.2,0.8,3.7,1.6,4.5,2.5s1.2,2.1,1.2,3.6c0,1.9-0.6,3.4-1.9,4.5s-3,1.7-5.2,1.7
		c-1.1,0-2.2-0.2-3.2-0.5s-2-0.8-3.1-1.4V793z"/>
	<path fill="#737373" d="M217.1,791.6c0,1.5,0.2,2.4,0.6,2.9s1.1,0.7,2.1,0.7c0.5,0,1.1-0.1,1.7-0.3s1.2-0.5,1.9-0.8v2.4
		c-0.7,0.3-1.3,0.5-2,0.7s-1.3,0.2-2,0.2c-1.8,0-3.1-0.4-3.8-1.3s-1.1-2.4-1.1-4.5v-14.3H210v-2h4.7v-4.9l1.8-2.1h0.6v7.1h5.8v2
		h-5.8V791.6z"/>
	<path fill="#737373" d="M275,793.6c-1,1.3-2.2,2.2-3.4,2.8s-2.6,0.9-4.1,0.9c-2.5,0-4.3-0.8-5.7-2.3s-2-3.7-2-6.5v-13.3h2.4v12.1
		c0,2.6,0.5,4.6,1.4,5.8s2.3,1.9,4.2,1.9c1.5,0,2.9-0.4,4.1-1.1s2.3-1.9,3.2-3.4v-15.4h2.4v21.7H275V793.6z"/>
	<path fill="#737373" d="M332,795.3c-0.9,0.7-1.8,1.2-2.8,1.5s-2.1,0.5-3.3,0.5c-3.2,0-5.7-1-7.7-3.1s-2.9-4.8-2.9-8.1
		s1-6.1,2.9-8.1s4.5-3.1,7.7-3.1c1.2,0,2.3,0.2,3.3,0.5s1.9,0.8,2.8,1.5v-12.7h2.3v32.8H332V795.3z M332,792.7v-13.3
		c-0.8-0.8-1.7-1.4-2.6-1.8s-2-0.6-3.2-0.6c-2.4,0-4.4,0.8-5.9,2.5s-2.3,3.9-2.3,6.6s0.8,4.9,2.3,6.6s3.5,2.5,5.9,2.5
		c1.2,0,2.3-0.2,3.2-0.6S331.2,793.5,332,792.7z"/>
	<path fill="#737373" d="M374.1,768.1v-4h2.5v4H374.1z M374.1,796.9v-21.7h2.5v21.7H374.1z"/>
	<path fill="#737373" d="M414.6,786.1c0-3.1,1.1-5.8,3.3-8s4.9-3.3,8-3.3c3.1,0,5.8,1.1,8,3.3s3.3,4.9,3.3,8c0,1.5-0.3,2.9-0.9,4.3
		s-1.4,2.6-2.5,3.7c-1.1,1.1-2.3,1.9-3.6,2.4s-2.8,0.8-4.3,0.8c-3.2,0-5.8-1.1-8-3.3S414.6,789.2,414.6,786.1z M417.3,786.1
		c0,2.5,0.8,4.6,2.5,6.4s3.7,2.6,6.1,2.6c2.4,0,4.4-0.9,6.1-2.6s2.5-3.9,2.5-6.4c0-2.5-0.8-4.7-2.5-6.4s-3.7-2.6-6.1-2.6
		c-2.4,0-4.5,0.9-6.1,2.6S417.3,783.6,417.3,786.1z"/>
	<path fill="#737373" d="M473.8,793c1.1,0.7,2.2,1.3,3.2,1.6s2.1,0.5,3.2,0.5c1.4,0,2.5-0.3,3.3-1s1.2-1.6,1.2-2.7
		c0-1.7-1.5-3-4.4-4.1c-0.8-0.3-1.3-0.5-1.8-0.7c-1.6-0.6-2.8-1.4-3.6-2.4s-1.2-2.2-1.2-3.5c0-1.8,0.6-3.2,1.9-4.3s2.9-1.7,5-1.7
		c0.9,0,1.9,0.1,2.8,0.4s2,0.8,3,1.4v2.5c-1.1-0.7-2.1-1.2-3.1-1.6s-2-0.5-2.9-0.5c-1.3,0-2.3,0.3-3.2,1s-1.2,1.6-1.2,2.7
		c0,1,0.4,1.8,1.1,2.4s2.2,1.3,4.2,2.1c2.2,0.8,3.7,1.6,4.5,2.5s1.2,2.1,1.2,3.6c0,1.9-0.6,3.4-1.9,4.5s-3,1.7-5.2,1.7
		c-1.1,0-2.2-0.2-3.2-0.5s-2-0.8-3.1-1.4V793z"/>
</g>
<text transform="matrix(1 0 0 1 160.5059 722.9229)" display="none" fill="#737373" font-family="'Humanist521BT-Light'" font-size="48" letter-spacing="33">studios</text>
</svg>
