<?xml version="1.0" encoding="utf-8"?>
<!-- Generator: Adobe Illustrator 23.0.1, SVG Export Plug-In . SVG Version: 6.00 Build 0)  -->
<svg version="1.1" xmlns="http://www.w3.org/2000/svg" xmlns:xlink="http://www.w3.org/1999/xlink" x="0px" y="0px"
	 viewBox="0 0 600 600" style="enable-background:new 0 0 600 600;" xml:space="preserve">
<style type="text/css">
	.st0{fill:url(#SVGID_1_);}
	.st1{fill:#E8E7E3;}
	.st2{fill:#68C39D;}
	.st3{fill:#50AEA0;}
	.st4{fill:#F36C21;}
	.st5{fill:#010101;}
	.st6{fill:#FFFFFF;}
</style>
<g id="Layer_1">
	<g id="Layer_x0020_1">
		
			<radialGradient id="SVGID_1_" cx="604.9156" cy="242.6391" r="77.4188" gradientTransform="matrix(1 0 0 1.2 -266 11.9814)" gradientUnits="userSpaceOnUse">
			<stop  offset="0.2806" style="stop-color:#557BBD"/>
			<stop  offset="1" style="stop-color:#305393"/>
		</radialGradient>
		<path class="st0" d="M430.8,315.3c1.3-1,3.9-5.7,4-8c-4.5-14.8-19.4-33.4-30.9-41.6l-14-9.9c-4.7-1.2-8.7-3.2-14.3-4.3
			c-6.7-1.3-10.5-1.1-17.3-1.1c-14.5,0.1-34.1,10.4-44.3,16.5c-13.1,7.7-41.1,19.8-41.1,19.8c-0.6,2-0.6,2-0.1-0.1
			c-4.1,1.5-9.4,2.4-13.8,2.9c-6,0.7-10.4-0.1-16,0c2.2,2.6,19.7,19.7,22.1,20.6v0.1c1.2-2.5,1.3-2.5,0.1,0.1
			c3.1,4.5,26.3,20.6,30.9,23.4c23.8,14.5,53.6,28.2,83,19.8c9.5-2.7,18.8-8.2,26.7-13.6c1.3-0.9,2.7-1.9,3.8-2.8 M408.5,329.3
			c-0.3,0.4-0.5,0.6-0.8,0.9C407.9,329.9,408.2,329.6,408.5,329.3L408.5,329.3z"/>
		<path class="st1" d="M362.5,232.2c1.4,0.7,4.7,4.7,6.5,6.2l19.1,15.7c1.1,0.8,1.2,0.9,1.9,1.6l14,9.9
			c11.5,8.3,26.4,26.9,30.9,41.6c1.7,3.4,2.5,7.9,3.1,11.9c0.4,2.3,0.6,4.6,0.7,7l-0.1,6.7c-0.3,1.1,0,0.4-0.4,1.1
			c-1.5-0.9-0.8-1.1-1.7-4.7c-1.7-6.4-3.2-8.5-5.4-14c-1-1.3-1.8-2.9-2.6-4.4c-0.8-1.3-2.3-3.1-2.6-4.4l-10.8-12.5
			c-1.5-1.9-3.8-4.3-5.5-5.9c-2.1-2.1-4-3.8-6-5.7c-4.5-4.4-19.7-17.2-26.3-19.8c-4.4,2.9-4.9,6.3-7.4,11.5
			c-3,18.7,5,26.2,18.3,36.6l10.7,8.2c3.3,2.6,9.3,7.5,11.2,10.7c1.1,0.2,1,0.6,1.7,1.6c0.7,0.9,1.1,1.2,1.8,2.1l2.8,4
			c2.6,2.5,6.2,11.4,6.7,16.2c2.8,23.2-20.2,28.4-29.1,15.6c-1.8-2.6-2-6.4-4.5-7.1c-2.4,0.4-3.8,1.1-5.2,2.2
			c-1.7,1.4-2.3,2.6-3.6,3.9c-1.3,4.8-3.2,8.9,0.2,15.3c3.4,6.4,8.5,6.7,10.7,8.7c5.9,0.1,7,1.3,14.8-2c6-2.6,9.4-6.4,13.1-9.2
			c4.6-3.6,6.7-7.5,11.3-11.4c1.7-1.4,3.6-2.6,5.3-3.8c12.4-9.4,20.1-35.6,20.1-52c-0.1-12.8,0-20.1-3.1-32.5
			c-2.3-9.2-5.9-18.7-10.1-25.9c-2.4-4-4.3-7.4-7.2-10.8c-5.7-6.5-12-13-20.7-15.3c-6.1-1.7-10.4-0.9-15.8,0.4
			c-0.6-1-12-9.6-15.6-13.3c-1.1-1.1-1.7-1.4-2.7-2.3l-11.1-13.1c-2.9-4-5.2-7.7-7.4-12.3c-4.2-8.4-7.5-19.2-7.9-31.2
			c-0.1-2.1-0.4-2.1-0.4-4.2l1.1-13.6c3.9-27.4,20.9-46.1,49.2-48.4c21.9-1.7,36.8,4.6,52,16.3c1.6,1.2,3.8,3.8,5.5,4.5
			c0.3-0.4,9.6-19.6,18.2-27.4c0.6-0.6,0-0.1,0.9-0.6c0.1,19.3,15.1,24.8,17.9,43.1l0.4,0.4c0-4.8,0.1-8.5-0.6-12.7
			c-2.7-16.2-12.3-32.6-25.4-42.6c-5.1-3.8-10.7-7.5-17.2-10.1c-14.5-5.8-32.2-6.2-46.8-1.8c-9.6,2.9-19,7.7-27,13.7l-7.5,6.2
			c-1.4,1.4-2.3,1.8-3.5,3.1c-4.3,4.1-11.8,14-14.9,18.7c-1.8,2.7-3.8,5.6-5.2,8.6c-7.6,14.8-11.2,23.8-14,40.7
			c-1.1,6.9-1.6,17.8-0.6,25.5c1.9,13.6,3.3,19.2,9.4,31.4c2.9,5.8,4.5,7.9,7.9,12.7C356.3,224.9,359.4,228.1,362.5,232.2
			L362.5,232.2z"/>
		<path class="st2" d="M380.5,368.2c1.3-1.3,1.8-2.5,3.6-3.9c1.4-1.1,2.8-1.7,5.2-2.2c0.6-0.8,0.1-0.3,0.9-1
			c0.4-0.3,0.6-0.5,0.9-0.8l25-23l-2.8-4c-0.4,1.6-2.4,2.6-3.8,3.6c-1.1,0.9-2.6,1.9-3.8,2.8c-7.9,5.4-17,10.9-26.7,13.6
			c-29.5,8.4-59.3-5.2-83-19.8c-4.5-2.7-27.7-18.9-30.9-23.4c-2.5-1.1-19.9-18-22.1-20.6c5.5-0.1,10.1,0.6,16,0
			c4.5-0.5,9.7-1.4,13.8-2.9c16.1-5.4,27.9-12.1,41-19.8c10.2-6,29.8-16.4,44.3-16.5c1.8-1,5-0.4,7.3-0.9c-4.8-0.2-25-11.1-55.7-2.3
			c-30.5,8.8-53.8,31.5-83.6,46.4c-17.1,8.6-30.6,12.1-52.8,12.2c1.1,2.1,19.1,16.4,20.3,17.4c46.4,36.3,121.5,81.5,181,48.1
			C376.3,370.6,379.6,368,380.5,368.2z"/>
		<path class="st3" d="M391.5,392.1c-2.2-1.8-7.3-2.2-10.7-8.7c-3.4-6.4-1.6-10.5-0.2-15.3c-0.9-0.2-4.2,2.4-5.7,3.2
			c-59.5,33.5-134.6-11.8-181.1-48.1c-1.2-1-19.1-15.3-20.3-17.4c22.2-0.1,35.7-3.7,52.8-12.2c29.8-14.9,53.1-37.6,83.6-46.4
			c30.7-8.9,50.9,2.1,55.7,2.3c-2.3,0.4-5.5-0.1-7.3,0.9c6.7-0.1,10.6-0.3,17.3,1.1c5.5,1.1,9.5,3.1,14.3,4.3
			c-0.6-0.7-0.9-0.9-1.9-1.6l-19.1-15.6c-1.7-1.5-5-5.5-6.5-6.2c-6.7-0.9-7.4-1.7-16.3-2.4c-17.7-1.4-32.7,1.2-48.9,7.7
			c-9.8,3.8-22.8,10.7-31.5,16.3L224.8,280c-14.2,8.9-22.7,12.7-38.2,18.8c-6.5,2.6-15.8,4.7-23.1,5.9c-2.7,0.4-6,1.1-8.7,1.1
			c-4,0.1-4.5,0.4-8.4,0.4c-4.1,0-4.8-0.4-8.4-0.4c0.4,1.6,7.1,6.9,8.7,8.5c1.1,1.1,1.7,1.9,3.1,2.8c2.1,1.6,4.1,3.8,6.2,5.5
			c1.2,1.1,1.9,1.8,3.2,2.7l15.9,13c10.9,8.8,22.1,16.8,33.7,24.6c2.4,1.6,4.7,3.1,7.2,4.6c9.7,6,19.1,11.5,29.7,16.8
			c14.2,7.1,34,15.6,50.3,19.3c32,7.3,58.7,7.2,87.8-7.3c2.6-1.3,5-2.9,7.5-4.3L391.5,392.1L391.5,392.1z"/>
		<path class="st3" d="M389.3,362.1c2.5,0.6,2.7,4.5,4.5,7.1c8.9,12.8,31.9,7.5,29.1-15.6c-0.6-4.9-4.1-13.6-6.7-16.2l-25,23
			c-0.4,0.3-0.6,0.4-0.9,0.8C389.3,361.8,389.8,361.3,389.3,362.1z"/>
		<path class="st4" d="M467.7,119.6c7.2,8.8,14.3,22.6,15,33.8c0.3,4-0.6,3.1,1.3,5.9c2.4,0,2.4-0.3,3.5-1.9
			c5.5-8.3,11.1-19.5,11.1-30.1l-0.4-0.4L483,109.3C480,110.4,471.3,117.7,467.7,119.6L467.7,119.6z"/>
		<path class="st5" d="M461.4,111.8c0.8,1.4,1.8,2.6,3.1,3.8c1,0.9,2.6,2.9,3.2,4c3.8-1.9,12.3-9.2,15.3-10.3l15.4,17.6
			c-2.8-18.3-17.7-23.8-17.9-43.1c-0.9,0.5-0.2,0.1-0.9,0.6C471.1,92.3,461.8,111.5,461.4,111.8L461.4,111.8z"/>
		<path class="st3" d="M430.8,315.3c2.3,5.5,3.7,7.7,5.4,14c1,3.5,0.4,3.8,1.8,4.7c0.4-0.6,0.2-0.1,0.4-1.1l0.1-6.7
			c-0.1-2.4-0.4-4.8-0.7-7c-0.6-4-1.5-8.5-3.1-11.9C434.7,309.5,432,314.3,430.8,315.3L430.8,315.3z"/>
	</g>
</g>
<g id="Layer_2">
	<g>
		<path class="st6" d="M182.3,418.1c-0.1,1.5-0.1,3.1-0.1,4.6c0,0.7-0.1,1.4-0.6,1.8c-0.1,0.3-0.4,0.4-0.8,0.4
			c-0.3,0-0.7-0.3-0.7-0.4c-0.3-0.8-0.6-1.7-0.7-2.5c-0.3-2.4-0.8-4.7-1.5-7.1c-0.4-1.8-1.3-3.6-1.8-5.3c-0.7-1.8-1.8-3.5-3.3-5
			c-2.8-2.8-6.4-3.5-10-2c-2,0.8-3.6,2.1-5,3.6c-2.6,2.9-4.3,6.4-5.3,10.2c-0.6,2.2-0.7,4.6-0.8,6.8c-0.1,4.9,1,9.5,3.2,13.8
			c2,4,4.5,7.7,7.3,11c2.8,3.3,5.6,6.6,8.4,9.9c3.1,3.6,5.7,7.7,7.8,12c1.1,2.4,1.8,4.7,2.4,7.3c0.1,0.7,0.1,1.3,0.3,2
			c0.3,2.6,0.3,5.3-0.1,7.9c-0.7,6.1-2.8,11.6-6.8,16.3c-3.1,3.6-7,5.7-11.7,6.6c-0.8,0.1-1.8,0.3-2.6,0.4c-2.4,0.4-4.6,0.1-6.8-0.6
			c-1.5-0.4-2.8-1.3-3.8-2.5c-1.1-1.5-1.4-3.2-1-5c0.1-0.7,0.8-1.4,1.7-1.4c1.1,0,2.1,0.1,3.3,0.4c1.7,0.4,3.5,0.8,5.2,1.3
			c2.9,0.7,5.9,0.4,8.9-0.3c2.6-0.8,4.7-2.4,6.3-4.6c2.4-3.6,3.1-7.8,2.5-12.1c-0.4-3.9-1.7-7.5-3.6-11c-2.1-3.8-4.7-7.3-7.7-10.5
			c-3.1-3.3-6.3-6.6-9.3-9.9c-3.3-3.3-5.9-7.3-8.1-11.4c-1.5-3.1-2.8-6.3-3.3-9.6c-0.3-1.8-0.4-3.8-0.4-5.6c-0.1-4,0.3-7.9,1.5-11.7
			c1.8-5.6,4.7-10.5,9.1-14.5c2.8-2.7,6-4.5,9.9-5.2c5.7-1,11.4,1,14.8,6c1.5,2.4,2.5,5,3.1,7.7
			C182.1,412.5,182.1,415.3,182.3,418.1z"/>
		<path class="st6" d="M198.6,451.3c0-3.5,0-6.8,0-10.3c0-2.6,0-5.3,0.4-7.9c0.1-0.8,0.1-1.5,0.1-2.4c-0.1-3.8,0.4-7.5,0.8-11.3
			c0.6-4.2,1.1-8.5,2.5-12.7c0.4-1.4,0.8-2.8,1.5-4c0.4-1.1,1.3-2.1,2-3.1c0.6-0.8,1.4-1.4,2.4-1.8c1.5-0.7,3.1-0.3,4,1.1
			c0.4,0.6,0.7,1.1,1,1.7c0.7,1.8,1.3,3.5,1.4,5.4c0.6,4.9,0.1,9.6-1,14.5c-1.7,6.7-3.9,13.1-6.8,19.4c-1.5,3.5-1.5,2.5-1.4,6.7
			c0.1,2.9,0.3,5.7,0.4,8.6c0.1,1.5,0.1,3.1,0.1,4.6c0.1,3.9,0.1,7.8,0.6,11.6c0.1,1.1,0.1,2.2,0.1,3.3c0.1,2.5,0.1,5.2,0.4,7.7
			c0.1,1.4,0.1,2.9,0.3,4.3c0.1,0.6,0.1,1.1,0.3,1.5c0.1,0.1,0.3,0.3,0.4,0.4c0.1,0.1,0.4,0,0.6-0.1c0.3-0.6,0.7-1.1,1-1.8
			c1.4-3.3,3.1-6.7,4.7-9.9c1.4-2.4,2.9-4.7,4.6-6.8c1.1-1.4,2.4-2.6,3.9-3.6c0.8-0.4,1.5-0.8,2.5-0.8c1.4-0.1,2.6,0.3,3.8,1
			c1.4,1,2.5,2.2,3.3,3.6c0.8,1.4,1.5,2.9,2.1,4.5c1.3,3.3,2.1,6.7,3.1,10.2c1.1,4.2,2.1,8.4,3.1,12.5c0.1,0.7,0.3,1.3,0.4,2
			c0.1,1.5-0.6,2.8-1.8,3.6c-1.3,1-3.3,0.7-4-0.7c-0.6-1-1.1-2-1.4-2.9c-0.8-2.1-1.5-4.5-2.1-6.7c-1.5-5.3-3.1-10.6-4.2-16
			c-0.3-1.3-0.7-2.5-1.3-3.8c-0.4-0.7-0.8-1.3-1.4-1.8c-1-0.8-2.4-0.8-3.3,0.3c-0.6,0.7-1.1,1.4-1.4,2.1c-0.7,1.4-1.3,2.8-1.8,4.2
			c-1.5,4.2-3.5,8.2-5.7,12c-0.7,1.3-1.5,2.4-2.5,3.5c-0.4,0.6-1.1,1.1-1.8,1.5c-2,1.3-4.2,0.8-5.6-1.3c-0.4-0.7-0.7-1.4-1-2.1
			c-0.4-1.5-1-3.2-1.3-4.7c-0.3-2.1-0.8-4-0.8-6.3c-0.8-4.5-0.6-9.1-1.1-13.5c-0.3-1.5-0.1-3.3-0.1-5
			C198.6,458.7,198.6,454.9,198.6,451.3L198.6,451.3z M211.3,409.9c-0.1-1.8-0.1-3.8-0.1-5.6c0-1.1-0.3-2.1-0.8-3.1
			c-0.4-1-1.8-1.1-2.5-0.3c-0.3,0.3-0.6,0.7-0.7,1.1c-0.3,1-0.7,1.8-1,2.8c-0.7,3.5-1.3,7-1.3,10.5c0,5.7,0.1,11.6,0.4,17.2
			c0,0.3,0.1,0.7,0.3,1c0.1,0.3,0.3,0.4,0.4,0.3c0.1,0,0.3,0,0.3-0.1c0.3-0.3,0.6-0.7,0.7-1.1C209.6,425.1,211.4,417.7,211.3,409.9z
			"/>
		<path class="st6" d="M275.5,465.1c0.1-2,0.1-4,0.1-6c0-0.6,0.3-1,0.7-1.4c0.3-0.3,0.8-0.4,1.3-0.1c0.3,0.3,0.7,0.7,0.8,1
			c0.6,1.3,1,2.4,1.4,3.6c1.8,5.2,3.2,10.6,4.6,15.9c0.7,2.5,1.4,4.9,2.1,7.4c0.3,0.7,0.7,1.4,1,2.1c0.3,0.6,1.3,0.7,1.8,0.3
			c0.7-0.4,1.3-1,1.7-1.5c1.1-1.5,2.4-3.3,3.5-4.9c1.8-2.7,3.6-5.3,5.7-7.8c0.7-0.8,1.3-1.5,2-2.2c1.3-1.3,2.8-1.8,4.5-1.8
			c1.5-0.1,3.1,0.4,4.2,1.5c1.5,1.4,2.8,2.9,3.6,4.7c1,2,2,4,2.8,6c0.4,1,0.8,2,1.4,3.1c0.3,0.4,0.6,1,0.8,1.4
			c0.7,1,2.1,1.3,2.9,0.4c1-0.7,1.8-1.5,2.6-2.5c1.4-1.4,2.5-3.1,3.9-4.6c1.1-1.4,2.4-2.6,3.9-3.6c1.1-0.8,2.4-1,3.8-0.8
			c0.7,0.1,1.3,0.3,1.8,0.8c0.7,0.7,1.4,1.5,1.8,2.4c0.8,1.5,1.5,3.1,2.2,4.7c2.1,5.2,3.3,10.5,4.6,15.9c0.4,2.4,0.8,4.6,0.7,6.8
			c0,0.4-0.1,0.8-0.3,1.3c-0.1,0.7-1.1,1.3-1.8,1c-0.8-0.1-1.4-0.6-2-1.1c-0.8-0.8-1.3-1.8-1.8-2.8c-1.1-2.4-1.8-5-2.4-7.7
			c-0.8-3.5-1.8-7.1-2.6-10.6c-0.3-1-0.6-2-1-2.8c-0.3-0.4-0.6-1-0.8-1.4c-0.8-0.8-2-1.1-3.1-0.7c-1.1,0.4-2,1.1-2.6,2
			c-1.8,2.1-3.5,4.3-5.2,6.4c-1.3,1.5-2.5,3.1-4,4.5c-0.7,0.6-1.4,1-2.1,1.5c-0.7,0.4-1.3,0.3-1.8-0.1c-0.8-0.6-1.4-1.4-2-2.2
			c-1-2-1.8-4-2.8-6.1c-0.8-2-1.7-4-2.5-6.1c-0.4-0.8-0.8-1.8-1.4-2.6c-0.4-0.7-1-1.3-1.5-1.8c-1.1-1-2.8-1-4-0.1
			c-1,0.7-1.8,1.7-2.4,2.8c-1.5,2.8-3.1,5.6-4.6,8.4c-2,3.5-3.9,7-5.9,10.5c-0.7,1-1.4,2-2.1,3.1c-0.6,0.7-1.3,1.3-2,1.7
			c-0.8,0.4-1.8,0.3-2.4-0.4c-0.7-0.8-1-1.8-1.3-2.8c-1.3-3.9-2.4-7.8-3.1-11.9c-0.7-3.3-1.5-6.7-2-10
			C276,473.5,275.3,469.3,275.5,465.1z"/>
		<path class="st6" d="M361.2,466.8c-0.1-2.5-0.1-5,0.1-7.7c0.1-1.3,0.4-1.8,1.1-1.8c1,0,1.3,0.8,1.5,1.4c0.4,0.8,0.7,1.5,1,2.5
			c0.8,2.8,1.8,5.4,2.5,8.2c1.1,4,2.2,8.1,3.3,12.1c0.4,1.5,0.8,3.2,1.4,4.7c0.1,0.4,0.6,1,0.8,1.4c0.3,0.3,1,0.4,1.3,0.3
			c0.4-0.3,1-0.6,1.3-1c0.8-1,1.5-2,2.2-2.9c1.4-2,2.6-3.9,3.9-5.7c1.3-1.8,2.6-3.5,4-5.3c0.6-0.7,1.3-1.3,1.8-2
			c1.3-1.3,2.9-1.7,4.6-1.7c1.4,0,2.5,0.4,3.6,1.3c1.7,1.4,3.1,3.2,4,5.2c1.1,2.4,2.1,4.6,3.2,6.8c0.3,0.7,0.7,1.4,1,2.1
			c0.3,0.4,0.7,0.8,1,1.3c0.6,0.7,1.8,0.8,2.5,0.3c0.7-0.6,1.4-1,2-1.7c1.4-1.4,2.6-3.1,3.9-4.5c1-1,2-2.2,2.9-3.2
			c0.6-0.6,1.3-1,1.8-1.4c1-0.7,2.2-1,3.5-1c1,0.1,1.8,0.4,2.4,1.1c0.4,0.4,0.8,1,1.3,1.5c0.8,1.4,1.5,2.9,2.2,4.5
			c2,4.7,3.3,9.9,4.5,14.9c0.4,2,0.8,3.9,1.1,5.9c0.1,1.1,0.1,2.2,0.1,3.3c0,0.4-0.3,1-0.7,1.5c-0.3,0.4-1,0.7-1.4,0.6
			c-0.8-0.1-1.5-0.6-2-1.1c-0.6-0.7-1-1.4-1.5-2.1c-1.3-2.2-2-4.7-2.5-7.3c-0.8-3.5-1.8-7.1-2.6-10.6c-0.3-1-0.6-2.1-1-3.2
			c-0.3-0.7-0.7-1.4-1.1-2c-0.7-1-2-1.3-2.9-0.8c-0.7,0.3-1.4,0.7-2,1.3c-0.7,0.7-1.4,1.5-2,2.2c-1.5,2-3.2,4-4.7,6
			c-1.3,1.5-2.4,2.9-3.9,4c-2.1,1.7-3.1,1.7-4.9-0.8c-0.6-0.8-1-1.8-1.4-2.6c-0.7-1.8-1.4-3.5-2.1-5.2c-0.8-2.1-1.7-4-2.5-6.1
			c-0.4-1.1-1.1-2.1-2.1-2.9c-1.3-1.3-3.2-1.3-4.6-0.1c-1,0.8-1.7,1.8-2.2,2.9c-1.8,3.3-3.6,6.6-5.4,9.9c-1.7,2.9-3.5,5.9-5.2,8.9
			c-0.6,1-1.3,1.8-1.8,2.8c-0.6,0.7-1.3,1.3-2,1.7c-0.8,0.4-1.8,0.3-2.4-0.4c-0.4-0.6-0.7-1.1-1-1.8c-0.8-2.5-1.5-5.2-2.2-7.7
			c-1.3-4.5-2.2-8.8-2.9-13.2c-0.4-2.8-1-5.7-1-8.5C361.3,469.7,361.2,468.2,361.2,466.8z"/>
		<path class="st6" d="M447.8,458.8c0-2.7,0-5.7,0-8.8c0-1.1,0.1-2.2,0.3-3.3c0.1-1.3,2.1-2,3.1-1.3c0.3,0.1,0.4,0.4,0.7,0.7
			c0.3,0.7,0.4,1.3,0.6,2c0.1,0.4,0.8,0.8,1.4,0.7c0.8-0.3,1.7-0.4,2.5-0.7c2.4-0.7,4.6-1.4,7.1-1.8c1.8-0.4,3.8-0.4,5.6-0.6
			c0.3,0,0.7,0.1,1,0.1c1.3,0.1,2,0.8,2.5,1.8c0.7,1.4,0.1,2.8-1.4,3.1c-1.5,0.3-3.3,0.4-4.9,0.8c-2.6,0.6-5.2,1.4-7.5,2.4
			c-0.8,0.4-1.8,0.8-2.6,1.4c-1,0.7-1.5,1.7-1.4,2.8c0.3,2.5,0.3,5,0.7,7.7c0.4,2.8,0.7,5.6,1,8.2c0.3,2,0.4,3.9,0.7,5.9
			c0.3,2.8,0.7,5.4,1,8.2c0.4,4.3,1,8.5,1.1,12.8c0,0.8-0.1,1.5-0.3,2.4c-0.1,0.7-0.7,1.3-1.4,1.4c-1.8,0.4-3.5,0.1-4.9-1.3
			c-0.6-0.7-1.1-1.4-1.4-2.2c-0.4-1-1-2.1-1-3.1c-0.3-2.1-0.8-4.3-0.8-6.6c0-2.8-0.1-5.6-0.4-8.2c0-0.3-0.1-0.4-0.1-0.7
			c-0.3-5.9-0.6-11.7-0.8-17.6C447.8,463,447.8,461.1,447.8,458.8z"/>
		<path class="st6" d="M261.5,496.8c0,2.4,0,4.6,0,7c0,0.8-0.1,1.5-0.1,2.4c-0.1,0.6-0.4,1-1,1.3c-1.5,0.7-2.9,0.7-4.5-0.1
			c-0.7-0.3-1-0.8-1.3-1.5c-0.1-0.4-0.1-0.8-0.3-1.3c-0.1-1.4-0.3-2.9-0.4-4.3c0-0.1,0-0.3-0.1-0.3c-0.3-4-0.6-7.9-0.7-12
			c-0.1-2.7-0.1-5.3,0-7.9c0-1.5,0.1-3.1,0.3-4.6c0.1-2.1,0.3-4.2,0.3-6.3c0-2.2,0.4-4.5,0.7-6.6c0.1-0.8,0.4-1.4,1.1-2
			c0.6-0.4,1.4-0.3,1.7,0.3c0.3,0.4,0.4,1,0.6,1.5c0.6,3.2,1,6.3,1.5,9.5c0.4,2.9,0.8,5.7,1.1,8.5c0.1,0.8,0.1,1.5,0.1,2.4
			c0.1,1.5,0.3,3.1,0.4,4.6c0.1,1,0.1,2,0.3,2.9c0.1,2.2,0.1,4.5,0.1,6.7C261.5,496.8,261.5,496.8,261.5,496.8z"/>
		<path class="st6" d="M257.3,442c0.1,2.4-2,4.3-3.9,4.6c-1,0.1-2.1-0.3-2.5-1.1c-1-1.8-1.3-3.8-0.3-5.7c1-2,2.9-2.4,4.5-1.8
			c0.4,0.1,0.8,0.4,1.1,0.7C256.9,439.6,257.3,440.7,257.3,442z"/>
	</g>
	<g>
		<path class="st6" d="M176,560.5c0.8,0.6,1.8,1,2.5,1.3c0.8,0.3,1.7,0.4,2.5,0.4c1.1,0,2-0.3,2.6-0.8c0.7-0.6,1-1.3,1-2.1
			c0-1.4-1.3-2.4-3.5-3.3c-0.7-0.3-1-0.4-1.4-0.6c-1.3-0.4-2.2-1.1-2.9-2c-0.7-0.8-1-1.8-1-2.8c0-1.4,0.4-2.5,1.5-3.5
			c1-0.8,2.4-1.4,4-1.4c0.7,0,1.5,0.1,2.2,0.3c0.7,0.3,1.5,0.7,2.4,1.1v2c-0.8-0.6-1.7-1-2.5-1.3c-0.8-0.3-1.5-0.4-2.4-0.4
			c-1,0-1.8,0.3-2.5,0.8c-0.7,0.6-1,1.3-1,2.1c0,0.8,0.3,1.4,0.8,2c0.6,0.4,1.8,1,3.3,1.7c1.8,0.7,2.9,1.3,3.6,2
			c0.7,0.7,1,1.7,1,2.9c0,1.5-0.4,2.8-1.5,3.6c-1.1,0.8-2.4,1.4-4.2,1.4c-0.8,0-1.8-0.1-2.5-0.4c-0.8-0.3-1.5-0.7-2.5-1.1v-2h0.3
			L176,560.5L176,560.5z"/>
		<path class="st6" d="M220,559.4c0,1.3,0.1,2,0.4,2.4c0.3,0.4,0.8,0.6,1.7,0.6c0.4,0,0.8-0.1,1.4-0.3c0.4-0.1,1-0.4,1.5-0.7v2
			c-0.6,0.3-1,0.4-1.5,0.6c-0.6,0.1-1,0.1-1.5,0.1c-1.4,0-2.5-0.3-3.1-1c-0.6-0.7-0.8-2-0.8-3.6v-11.4h-3.6v-1.5h3.8v-3.9l1.4-1.7
			h0.4v5.7h4.6v1.5H220L220,559.4L220,559.4z"/>
		<path class="st6" d="M266.3,561.1c-0.8,1-1.8,1.8-2.8,2.2c-1,0.4-2.1,0.7-3.3,0.7c-2,0-3.5-0.7-4.6-1.8c-1.1-1.3-1.5-2.9-1.5-5.2
			v-10.6h2v9.6c0,2.1,0.4,3.6,1.1,4.6c0.7,1,1.8,1.5,3.3,1.5c1.3,0,2.4-0.3,3.3-0.8c1-0.6,1.8-1.5,2.5-2.8v-12.3h2v17.4h-2V561.1
			L266.3,561.1z"/>
		<path class="st6" d="M311.9,562.3c-0.7,0.6-1.4,1-2.2,1.3c-0.8,0.3-1.7,0.4-2.6,0.4c-2.5,0-4.6-0.8-6.1-2.5
			c-1.5-1.7-2.4-3.9-2.4-6.6c0-2.6,0.8-4.9,2.4-6.4c1.5-1.5,3.6-2.5,6.1-2.5c1,0,1.8,0.1,2.6,0.4c0.8,0.3,1.5,0.7,2.2,1.3v-10.2h1.8
			v26.2h-1.8V562.3z M311.9,560.4v-10.6c-0.7-0.7-1.4-1.1-2.1-1.4c-0.7-0.3-1.5-0.4-2.5-0.4c-2,0-3.5,0.7-4.7,2
			c-1.3,1.4-1.8,3.1-1.8,5.3c0,2.2,0.7,3.9,1.8,5.3c1.3,1.4,2.8,2,4.7,2c1,0,1.8-0.1,2.5-0.4C310.7,561.5,311.4,560.9,311.9,560.4z"
			/>
		<path class="st6" d="M345.7,540.6v-3.2h2v3.2H345.7z M345.7,563.7v-17.4h2v17.4H345.7z"/>
		<path class="st6" d="M378,555.1c0-2.5,0.8-4.6,2.6-6.4c1.8-1.8,3.9-2.6,6.4-2.6c2.5,0,4.6,0.8,6.4,2.6c1.8,1.8,2.6,3.9,2.6,6.4
			c0,1.3-0.3,2.4-0.7,3.5c-0.4,1.1-1.1,2.1-2,2.9c-0.8,0.8-1.8,1.5-2.9,2c-1.1,0.4-2.2,0.7-3.5,0.7c-2.5,0-4.6-0.8-6.4-2.6
			C379,559.5,378,557.4,378,555.1z M380.3,555.1c0,2,0.7,3.6,2,5.2c1.3,1.5,2.9,2.1,4.9,2.1c2,0,3.5-0.7,4.9-2.1
			c1.4-1.4,2-3.1,2-5.2c0-2-0.7-3.8-2-5.2c-1.4-1.4-2.9-2.1-4.9-2.1c-2,0-3.6,0.7-4.9,2.1C381,551.3,380.3,553,380.3,555.1z"/>
		<path class="st6" d="M425.5,560.5c0.8,0.6,1.8,1,2.5,1.3c0.8,0.3,1.7,0.4,2.5,0.4c1.1,0,2-0.3,2.7-0.8c0.7-0.6,1-1.3,1-2.1
			c0-1.4-1.3-2.4-3.5-3.3c-0.7-0.3-1-0.4-1.4-0.6c-1.3-0.4-2.2-1.1-2.9-2c-0.7-0.8-1-1.8-1-2.8c0-1.4,0.4-2.5,1.5-3.5
			c1-0.8,2.4-1.4,4-1.4c0.7,0,1.5,0.1,2.2,0.3c0.7,0.3,1.5,0.7,2.4,1.1v2c-0.8-0.6-1.7-1-2.5-1.3c-0.8-0.3-1.5-0.4-2.4-0.4
			c-1,0-1.8,0.3-2.5,0.8c-0.7,0.6-1,1.3-1,2.1c0,0.8,0.3,1.4,0.8,2c0.6,0.4,1.8,1,3.3,1.7c1.8,0.7,2.9,1.3,3.6,2
			c0.7,0.7,1,1.7,1,2.9c0,1.5-0.4,2.8-1.5,3.6c-1.1,0.8-2.4,1.4-4.2,1.4c-0.8,0-1.8-0.1-2.5-0.4c-0.8-0.3-1.5-0.7-2.5-1.1v-2h0.3
			L425.5,560.5L425.5,560.5z"/>
	</g>
</g>
</svg>
