<?xml version="1.0" encoding="utf-8"?>
<!-- Generator: Adobe Illustrator 16.0.0, SVG Export Plug-In . SVG Version: 6.00 Build 0)  -->
<!DOCTYPE svg PUBLIC "-//W3C//DTD SVG 1.1//EN" "http://www.w3.org/Graphics/SVG/1.1/DTD/svg11.dtd">
<svg version="1.1" xmlns="http://www.w3.org/2000/svg" xmlns:xlink="http://www.w3.org/1999/xlink" x="0px" y="0px" width="1000px"
	 height="1000px" viewBox="0 0 1000 1000" enable-background="new 0 0 1000 1000" xml:space="preserve">
<g id="Layer_2">
	<rect x="0" fill="#FFFFFF" width="1000" height="1000"/>
</g>
<g id="Layer_1">
	<g id="Layer_x0020_1">
		
			<radialGradient id="SVGID_1_" cx="783.5498" cy="166.4883" r="120.2673" gradientTransform="matrix(1 0 0 -1.2 -266 675.8813)" gradientUnits="userSpaceOnUse">
			<stop  offset="0.2806" style="stop-color:#4A7FE1"/>
			<stop  offset="1" style="stop-color:#305292"/>
		</radialGradient>
		<path fill="url(#SVGID_1_)" d="M660.3,494.9c2-1.5,6.101-8.9,6.2-12.4c-7.1-23-30.2-51.9-48.1-64.7l-21.7-15.3
			c-7.3-1.9-13.601-5-22.101-6.7c-10.399-2.1-16.3-1.7-26.899-1.7c-22.5,0.1-53,16.2-68.9,25.6c-20.4,12-63.8,30.7-63.8,30.7
			c-0.9,3.1-1,3.1-0.1-0.1c-6.4,2.3-14.5,3.7-21.5,4.5c-9.4,1.1-16.2-0.1-24.8,0c3.4,4,30.5,30.5,34.3,32v0.101
			c1.9-3.9,2.1-3.9,0.1,0.1c4.8,6.9,40.9,32.1,47.9,36.4c36.9,22.6,83.2,43.8,129,30.699C594.7,549.9,609.1,541.4,621.3,532.9
			c2-1.4,4.2-3,6-4.4 M625.6,516.7c-0.399,0.5-0.8,1-1.199,1.399C624.8,517.6,625.2,517.2,625.6,516.7L625.6,516.7z"/>
		<path fill="#E8E7E3" d="M554.2,365.8c2.2,1.1,7.3,7.3,10,9.7l29.7,24.4c1.6,1.2,1.899,1.4,3,2.5l21.699,15.3
			c17.9,12.9,41,41.8,48.101,64.7c2.6,5.3,3.899,12.2,4.899,18.5c0.601,3.5,0.9,7.199,1.101,10.899l-0.2,10.4
			c-0.4,1.6,0,0.6-0.7,1.7c-2.3-1.4-1.2-1.7-2.7-7.301c-2.699-9.899-5-13.199-8.399-21.8c-1.5-2.1-2.7-4.5-4.101-6.8
			c-1.199-2-3.5-4.7-4-6.8l-16.8-19.4c-2.3-3-6-6.6-8.5-9.1c-3.2-3.2-6.3-5.8-9.399-8.9C611,437,587.4,417,577,413
			c-6.8,4.5-7.6,9.8-11.5,17.9c-4.6,29.1,7.8,40.7,28.4,56.9l16.6,12.7c5.2,4,14.4,11.7,17.4,16.6c1.6,0.301,1.5,0.9,2.699,2.4
			c1.101,1.4,1.801,1.9,2.7,3.3l4.3,6.3C641.7,533,647.2,546.7,648.1,554.2c4.4,36-31.399,44.2-45.199,24.3
			c-2.801-4-3.101-9.9-7.101-11c-3.7,0.6-5.8,1.6-8,3.4c-2.7,2.199-3.5,4.1-5.6,6.1c-2,7.5-5,13.9,0.3,23.8
			c5.3,9.9,13.2,10.5,16.6,13.4c9.2,0.2,10.9,2.1,23-3.101c9.301-4,14.601-9.899,20.301-14.3c7.199-5.6,10.399-11.7,17.5-17.7
			c2.699-2.199,5.6-4,8.3-6c19.3-14.6,31.3-55.3,31.2-80.8c-0.101-20,0-31.3-4.801-50.5c-3.5-14.2-9.1-29.1-15.8-40.2
			c-3.7-6.2-6.6-11.6-11.2-16.8c-8.8-10-18.6-20.2-32.199-23.8c-9.5-2.6-16.101-1.4-24.601,0.6c-1-1.5-18.6-15-24.3-20.7
			c-1.7-1.7-2.6-2.2-4.2-3.6L565,317c-4.5-6.3-8-12-11.6-19.1c-6.5-13-11.7-29.8-12.2-48.5c-0.101-3.2-0.601-3.3-0.7-6.5l1.7-21.2
			c6.1-42.6,32.399-71.7,76.5-75.2c33.899-2.7,57.2,7.2,80.8,25.3c2.5,1.9,5.9,5.8,8.5,7c0.4-0.5,15-30.4,28.3-42.6
			c0.9-0.9,0-0.2,1.3-1c0.2,30,23.5,38.6,27.801,67l0.6,0.7c0-7.4,0.1-13.2-0.9-19.7c-4.199-25.2-19.199-50.6-39.5-66.1
			c-7.899-6-16.6-11.7-26.699-15.6c-22.601-9-50-9.6-72.601-2.8c-15,4.5-29.5,12-41.899,21.3l-11.7,9.7c-2.2,2.2-3.5,2.9-5.5,4.9
			c-6.7,6.4-18.3,21.7-23.101,29c-2.8,4.2-5.8,8.7-8.2,13.3c-11.5,22.8-17.1,36.9-21.5,63.2c-1.8,10.7-2.5,27.7-0.899,39.7
			c3,21,5.1,29.9,14.5,48.7c4.5,9,7,12.2,12.2,19.7c4.3,6.3,9.1,11.2,14,17.7V365.8z"/>
		<path fill="#55D6A3" d="M582.2,577.1c2.1-2,2.899-3.899,5.6-6.1c2.2-1.8,4.3-2.7,8-3.4c0.9-1.199,0.101-0.399,1.4-1.5
			c0.5-0.399,1-0.8,1.399-1.199l38.9-35.7l-4.3-6.3c-0.601,2.399-3.7,4-5.8,5.6c-1.801,1.3-4,3-6,4.4
			C609.2,541.3,594.9,549.8,580,554.1C534.1,567.2,487.8,546,451,523.4c-6.9-4.2-43.1-29.4-47.9-36.4c-3.9-1.6-31-28-34.3-32
			c8.6-0.1,15.6,1,24.8,0c7.1-0.8,15.1-2.2,21.5-4.5c25-8.4,43.3-18.8,63.7-30.7c15.9-9.4,46.3-25.5,68.9-25.6
			c2.899-1.5,7.8-0.6,11.399-1.3c-7.5-0.3-38.899-17.3-86.5-3.5c-47.4,13.7-83.5,48.9-129.9,72.1c-26.6,13.3-47.5,18.8-82,19
			c1.8,3.2,29.6,25.5,31.5,27c72.1,56.4,188.8,126.7,281.2,74.7C575.7,580.7,580.8,576.8,582.2,577.1z"/>
		<path fill="#50AEA0" d="M599.2,614.2c-3.4-2.9-11.3-3.4-16.601-13.4c-5.3-9.899-2.399-16.3-0.3-23.8c-1.399-0.3-6.5,3.7-8.8,5
			c-92.5,52-209.1-18.3-281.3-74.7c-1.9-1.5-29.7-23.8-31.5-27c34.5-0.2,55.4-5.7,82-19c46.3-23.2,82.4-58.4,129.9-72.1
			c47.7-13.8,79.1,3.2,86.5,3.5c-3.6,0.7-8.5-0.2-11.399,1.3c10.5-0.1,16.399-0.4,26.899,1.7c8.601,1.7,14.801,4.8,22.101,6.7
			c-0.9-1.1-1.3-1.3-3-2.5L564,375.5c-2.7-2.3-7.8-8.6-10-9.7c-10.5-1.4-11.5-2.7-25.3-3.8c-27.5-2.2-50.8,1.9-76,12
			c-15.2,6-35.5,16.6-48.9,25.4l-63.6,40.7c-22,13.9-35.3,19.7-59.4,29.2c-10.1,4-24.6,7.3-35.9,9.1c-4.2,0.6-9.3,1.6-13.4,1.6
			c-6.3,0.1-7.1,0.6-13,0.6c-6.4,0-7.4-0.6-13-0.6c0.6,2.4,11,10.7,13.5,13.2c1.8,1.8,2.7,3,4.7,4.399c3.2,2.4,6.4,5.9,9.6,8.601
			c1.9,1.6,3,2.7,5,4.2L263,530.6c16.9,13.7,34.3,26.101,52.4,38.2c3.7,2.5,7.3,4.8,11.1,7.2c15.1,9.4,29.7,17.9,46.1,26.1
			c22,11,52.8,24.301,78.1,30c49.7,11.4,91.2,11.101,136.399-11.3c4-2,7.7-4.5,11.7-6.6H599.2L599.2,614.2z"/>
		<path fill="#50AEA0" d="M595.8,567.6c3.9,1,4.2,7,7.101,11c13.8,19.9,49.6,11.7,45.199-24.3c-0.899-7.6-6.399-21.2-10.5-25.1
			L598.7,564.9c-0.5,0.399-1,0.699-1.4,1.199C595.9,567.2,596.6,566.4,595.8,567.6z"/>
		<path fill="#FA6A00" d="M717.7,190.9c11.1,13.7,22.2,35,23.399,52.6c0.4,6.3-0.899,4.7,2,9.1c3.801,0,3.801-0.4,5.5-3
			c8.5-12.9,17.301-30.3,17.301-46.7l-0.601-0.7L741.4,174.9C736.7,176.6,723.3,187.9,717.7,190.9L717.7,190.9z"/>
		<path d="M707.9,178.8c1.199,2.2,2.899,4,4.8,5.9c1.5,1.4,4.1,4.5,5,6.2c5.8-3,19.1-14.3,23.8-16l23.9,27.3
			c-4.301-28.4-27.601-37-27.801-67c-1.3,0.8-0.3,0.1-1.3,1C723,148.4,708.4,178.3,707.9,178.8L707.9,178.8z"/>
		<path fill="#50AEA0" d="M660.2,494.9c3.5,8.6,5.7,11.899,8.399,21.8c1.5,5.5,0.5,5.8,2.7,7.3c0.7-1,0.3-0.1,0.7-1.7l0.2-10.399
			c-0.101-3.7-0.5-7.4-1.101-10.9c-1-6.2-2.3-13.2-4.899-18.5C666.3,485.9,662.1,493.3,660.2,494.9L660.2,494.9z"/>
	</g>
	<g>
		<path fill="#747474" d="M350.9,705c-0.1,1.9-0.1,3.9-0.2,5.8c0,0.8-0.2,1.7-0.7,2.3c-0.2,0.301-0.6,0.601-1,0.601
			s-0.8-0.3-0.9-0.601c-0.4-1-0.7-2.1-0.9-3.199c-0.3-3-1-6-1.9-8.9c-0.6-2.3-1.5-4.5-2.3-6.6c-0.9-2.301-2.3-4.4-4.1-6.2
			c-3.4-3.5-8-4.3-12.6-2.5c-2.5,1-4.6,2.6-6.3,4.6c-3.3,3.7-5.4,8-6.7,12.7c-0.7,2.8-0.8,5.7-1,8.6c-0.2,6.101,1.2,11.801,4,17.2
			c2.5,5,5.5,9.601,9.1,13.8c3.5,4.101,7,8.2,10.5,12.301c3.9,4.5,7.2,9.5,9.8,14.899c1.4,2.9,2.3,5.9,3,9
			c0.2,0.8,0.2,1.601,0.3,2.5c0.3,3.3,0.3,6.7-0.1,9.9c-0.9,7.6-3.5,14.5-8.5,20.399c-3.8,4.5-8.7,7.101-14.6,8.101
			c-1.1,0.2-2.2,0.3-3.3,0.5c-2.9,0.5-5.8,0.1-8.6-0.7c-1.9-0.5-3.5-1.6-4.7-3.2c-1.4-1.899-1.8-4-1.3-6.3c0.2-0.9,1.1-1.7,2.1-1.7
			c1.4,0,2.7,0.2,4.1,0.601c2.1,0.6,4.3,1.1,6.4,1.6c3.7,0.9,7.4,0.6,11.1-0.4c3.3-1,5.9-2.899,7.8-5.8c3-4.6,3.9-9.7,3.2-15.1
			c-0.6-4.8-2.1-9.4-4.5-13.7c-2.7-4.7-5.9-9.1-9.6-13c-3.9-4.1-7.8-8.2-11.7-12.3c-4.1-4.2-7.4-9-10.1-14.2
			c-2-3.8-3.5-7.9-4.2-12.1c-0.4-2.301-0.5-4.7-0.5-7c-0.1-5,0.3-9.9,1.9-14.7c2.3-6.9,6-13,11.3-18.101c3.5-3.3,7.5-5.6,12.3-6.5
			c7.1-1.3,14.3,1.2,18.4,7.5c1.9,2.9,3.1,6.2,3.9,9.5C350.7,698.1,350.8,701.6,350.9,705z"/>
		<path fill="#747474" d="M371.2,746.5c0-4.3,0-8.6,0-12.9c0-3.3,0-6.6,0.5-9.899c0.1-1,0.2-1.9,0.2-2.9
			c-0.1-4.7,0.5-9.399,1.1-14.1c0.7-5.3,1.4-10.7,3.1-15.8c0.6-1.7,1.1-3.4,1.9-5c0.6-1.4,1.5-2.601,2.4-3.9c0.7-1,1.7-1.7,2.9-2.2
			c2-0.8,3.8-0.399,5.1,1.4c0.5,0.7,0.9,1.399,1.2,2.1c0.9,2.2,1.5,4.4,1.8,6.8c0.7,6.101,0.2,12.101-1.3,18.101
			c-2.1,8.3-4.9,16.399-8.6,24.2c-2,4.399-1.9,3.1-1.7,8.399c0.1,3.601,0.4,7.2,0.5,10.8c0.1,1.9,0.1,3.9,0.2,5.801
			c0.1,4.8,0.1,9.699,0.7,14.5c0.2,1.399,0.1,2.8,0.2,4.1c0.1,3.2,0.2,6.4,0.6,9.5c0.2,1.8,0.2,3.6,0.3,5.4
			c0.1,0.699,0.2,1.399,0.4,2c0.1,0.199,0.4,0.399,0.6,0.5c0.2,0.1,0.6,0,0.7-0.2c0.4-0.7,0.9-1.4,1.2-2.2c1.8-4.2,3.8-8.3,6-12.3
			c1.7-3,3.6-5.9,5.7-8.601c1.4-1.699,2.9-3.3,4.9-4.5c1-0.6,2-1,3.1-1c1.7-0.1,3.3,0.301,4.7,1.301c1.7,1.199,3.1,2.8,4.1,4.6
			c1.1,1.8,1.9,3.7,2.6,5.6c1.6,4.101,2.7,8.4,3.8,12.7c1.4,5.2,2.6,10.5,3.9,15.7c0.2,0.8,0.4,1.6,0.5,2.4c0.2,2-0.7,3.5-2.2,4.6
			c-1.6,1.2-4.1,0.9-5.1-0.8c-0.7-1.2-1.4-2.4-1.8-3.7c-1-2.7-1.9-5.5-2.7-8.3c-1.9-6.601-3.8-13.3-5.3-20
			c-0.4-1.601-0.8-3.2-1.6-4.7c-0.5-0.9-1-1.6-1.8-2.2c-1.3-1-3-1-4.1,0.3c-0.7,0.8-1.4,1.8-1.8,2.7c-0.8,1.7-1.6,3.5-2.3,5.3
			c-1.9,5.2-4.4,10.2-7.2,14.9c-0.9,1.5-2,3-3.1,4.4c-0.6,0.699-1.4,1.399-2.2,1.899c-2.4,1.5-5.2,1.101-6.9-1.5
			c-0.5-0.8-0.9-1.7-1.2-2.6c-0.6-2-1.2-4-1.5-6c-0.4-2.601-1.1-5.101-1.1-7.8c-1.1-5.601-0.7-11.301-1.4-16.9
			c-0.3-2-0.1-4.1-0.1-6.2C371.2,755.7,371.2,751.1,371.2,746.5L371.2,746.5z M387.2,694.7c-0.1-2.3-0.1-4.7-0.2-7
			c0-1.4-0.4-2.7-1.1-3.9c-0.6-1.2-2.3-1.399-3.1-0.3c-0.3,0.4-0.7,0.9-0.9,1.4c-0.4,1.199-0.9,2.3-1.2,3.5
			c-0.9,4.3-1.5,8.699-1.5,13.1c0,7.2,0.2,14.4,0.6,21.5c0,0.4,0.2,0.8,0.3,1.2c0.1,0.3,0.3,0.5,0.6,0.399c0.1,0,0.3,0,0.4-0.1
			c0.3-0.4,0.7-0.9,0.9-1.4C385,713.8,387.3,704.5,387.2,694.7z"/>
		<path fill="#747474" d="M467.4,763.8c0.1-2.5,0.1-5,0.2-7.5c0-0.7,0.3-1.3,0.8-1.8c0.3-0.4,1.1-0.5,1.5-0.1
			c0.4,0.399,0.9,0.8,1.1,1.199c0.7,1.5,1.3,3,1.8,4.601c2.2,6.5,4,13.2,5.8,19.899c0.8,3.101,1.7,6.101,2.6,9.2
			c0.3,0.9,0.8,1.8,1.2,2.601c0.4,0.699,1.6,0.8,2.2,0.399c0.8-0.5,1.5-1.2,2.1-2c1.399-2,2.899-4.1,4.3-6.1
			c2.3-3.3,4.5-6.601,7.1-9.7c0.801-1,1.601-1.9,2.5-2.8c1.601-1.5,3.5-2.2,5.601-2.3c2-0.101,3.8,0.5,5.3,1.899
			c1.9,1.7,3.4,3.601,4.5,5.9c1.2,2.5,2.4,5,3.5,7.5c0.6,1.3,1.1,2.5,1.7,3.8c0.3,0.6,0.7,1.2,1.1,1.7c0.9,1.2,2.601,1.5,3.7,0.5
			c1.2-0.9,2.3-2,3.3-3.1c1.7-1.801,3.2-3.801,4.8-5.7c1.4-1.7,3-3.3,4.801-4.601c1.399-1,3-1.3,4.699-1.1c0.9,0.1,1.601,0.4,2.2,1
			c0.8,0.9,1.7,1.9,2.3,2.9c1,1.899,2,3.899,2.801,6c2.6,6.399,4.199,13.1,5.699,19.899c0.601,2.9,1,5.7,0.801,8.601
			c0,0.5-0.101,1.1-0.301,1.6c-0.199,0.9-1.399,1.5-2.3,1.3c-1-0.2-1.8-0.7-2.5-1.399c-1-1-1.6-2.2-2.2-3.5
			c-1.399-3-2.199-6.2-3-9.5c-1.1-4.4-2.199-8.9-3.3-13.301c-0.3-1.199-0.7-2.399-1.2-3.5c-0.3-0.6-0.699-1.199-1.1-1.699
			c-1-1.101-2.5-1.4-3.8-0.9s-2.4,1.4-3.3,2.5c-2.2,2.7-4.301,5.4-6.5,8.1c-1.5,2-3.101,3.9-5,5.5c-0.801,0.7-1.7,1.3-2.7,1.9
			c-0.8,0.5-1.601,0.3-2.3-0.2c-1.101-0.7-1.801-1.7-2.4-2.8c-1.2-2.5-2.3-5-3.4-7.6c-1.1-2.5-2.1-5.101-3.1-7.7
			c-0.5-1.101-1-2.3-1.7-3.3c-0.5-0.801-1.2-1.5-1.899-2.2c-1.4-1.2-3.5-1.2-5-0.101c-1.301,0.9-2.2,2.101-2.9,3.5
			c-1.9,3.5-3.9,7-5.8,10.5c-2.4,4.301-4.9,8.7-7.4,13c-0.8,1.301-1.7,2.5-2.6,3.801c-0.7,0.899-1.5,1.6-2.5,2.1
			c-1.1,0.6-2.2,0.4-3-0.6c-0.8-1-1.2-2.2-1.6-3.4c-1.5-4.9-2.9-9.8-3.9-14.8c-0.9-4.2-1.9-8.4-2.4-12.601
			C468,774.3,467.1,769,467.4,763.8z"/>
		<path fill="#747474" d="M574.5,765.8c-0.1-3.1-0.2-6.3,0.2-9.5c0.2-1.5,0.6-2.2,1.399-2.2c1.2,0,1.601,1,2,1.801
			c0.5,1,0.9,2,1.2,3.1c1.101,3.4,2.2,6.8,3.2,10.3c1.4,5.101,2.7,10.101,4.1,15.2c0.5,2,1.101,4,1.801,5.9
			c0.199,0.6,0.699,1.199,1.1,1.699c0.3,0.4,1.2,0.5,1.5,0.301c0.6-0.4,1.2-0.7,1.6-1.2c1-1.2,1.9-2.4,2.7-3.601
			c1.7-2.399,3.3-4.8,4.9-7.199c1.6-2.2,3.3-4.4,5-6.601c0.7-0.899,1.5-1.6,2.3-2.399c1.6-1.5,3.6-2.101,5.7-2.101
			c1.7,0,3.2,0.5,4.6,1.601c2.101,1.8,3.8,4,5,6.5c1.4,2.899,2.7,5.8,4,8.6c0.4,0.9,0.8,1.8,1.2,2.6c0.3,0.601,0.8,1.101,1.2,1.601
			c0.7,0.8,2.2,1,3.1,0.399c0.9-0.6,1.8-1.3,2.5-2.1c1.7-1.8,3.3-3.8,4.9-5.6c1.2-1.301,2.399-2.7,3.6-4
			c0.7-0.7,1.5-1.301,2.2-1.801c1.3-0.899,2.7-1.3,4.3-1.199c1.2,0.1,2.2,0.5,2.9,1.399c0.6,0.601,1.1,1.3,1.5,2
			c1.1,1.8,2,3.601,2.8,5.5c2.4,6,4.2,12.3,5.6,18.601c0.5,2.399,1,4.899,1.4,7.3c0.2,1.399,0.2,2.8,0.1,4.1
			c0,0.601-0.399,1.3-0.8,1.9c-0.3,0.5-1.2,0.899-1.8,0.7c-1-0.2-1.9-0.7-2.5-1.4c-0.7-0.9-1.3-1.8-1.9-2.7
			c-1.5-2.8-2.399-5.899-3.199-9c-1.101-4.399-2.2-8.899-3.301-13.3c-0.3-1.3-0.699-2.7-1.199-4c-0.301-0.9-0.9-1.7-1.4-2.5
			c-0.9-1.2-2.4-1.5-3.7-1c-0.899,0.3-1.8,0.8-2.399,1.5c-0.9,0.9-1.7,1.9-2.4,2.8c-2,2.5-4,5-5.9,7.5c-1.5,1.9-3,3.601-4.899,5.101
			c-2.601,2.1-3.8,2.1-6.101-1c-0.699-1-1.199-2.2-1.699-3.301c-0.9-2.199-1.801-4.3-2.7-6.5c-1.101-2.6-2.101-5.1-3.2-7.6
			c-0.6-1.4-1.4-2.7-2.6-3.7c-1.601-1.5-4-1.6-5.7-0.2c-1.2,1-2.101,2.2-2.8,3.601c-2.301,4.1-4.5,8.2-6.801,12.3
			c-2.1,3.7-4.3,7.4-6.399,11.1c-0.7,1.2-1.5,2.3-2.3,3.4c-0.7,0.9-1.5,1.6-2.5,2.1s-2.301,0.4-3-0.6c-0.5-0.7-0.9-1.4-1.2-2.2
			c-1-3.2-1.9-6.4-2.8-9.6c-1.5-5.5-2.801-11-3.601-16.601c-0.5-3.5-1.2-7.1-1.2-10.699C574.7,769.5,574.5,767.7,574.5,765.8z"/>
		<path fill="#747474" d="M682.6,755.9c0-3.301,0-7.2,0-11c0-1.4,0.101-2.801,0.301-4.101c0.199-1.6,2.6-2.5,3.899-1.5
			c0.3,0.2,0.601,0.601,0.8,0.9c0.301,0.8,0.5,1.6,0.7,2.399c0.2,0.601,1,1.101,1.7,0.9c1.1-0.3,2.1-0.6,3.2-0.9
			c2.899-0.8,5.8-1.699,8.8-2.3c2.3-0.5,4.7-0.5,7-0.7c0.4,0,0.8,0.101,1.2,0.101c1.5,0.2,2.5,1,3.2,2.3
			c0.899,1.7,0.199,3.4-1.7,3.8c-2,0.4-4.101,0.601-6.101,1c-3.3,0.7-6.399,1.7-9.399,3c-1.101,0.5-2.2,1.101-3.3,1.8
			c-1.2,0.801-1.9,2.101-1.801,3.5c0.301,3.2,0.301,6.301,0.801,9.5c0.6,3.4,0.8,6.9,1.199,10.301c0.301,2.5,0.601,4.899,0.9,7.399
			c0.4,3.4,0.9,6.8,1.3,10.3c0.601,5.4,1.3,10.7,1.4,16.101c0,1-0.101,1.899-0.3,2.899c-0.2,0.9-0.801,1.5-1.7,1.7
			c-2.3,0.601-4.4,0.2-6.101-1.6c-0.699-0.8-1.399-1.7-1.8-2.7c-0.6-1.2-1.2-2.6-1.3-3.9c-0.4-2.699-1-5.399-1-8.199
			c0-3.5-0.1-6.9-0.6-10.301c0-0.3-0.101-0.5-0.101-0.8c-0.3-7.3-0.7-14.6-1-21.899C682.7,761.1,682.6,758.8,682.6,755.9z"/>
		<path fill="#747474" d="M449.9,803.4c0,2.899,0,5.8,0,8.699c0,1-0.1,1.9-0.2,2.9c-0.1,0.7-0.6,1.2-1.3,1.5
			c-1.9,0.9-3.7,0.8-5.6-0.2c-0.8-0.399-1.3-1.1-1.5-1.899c-0.2-0.5-0.2-1.101-0.3-1.601c-0.2-1.8-0.4-3.6-0.6-5.399
			c0-0.101,0-0.301-0.1-0.4c-0.3-5-0.7-9.9-0.9-14.9c-0.1-3.3-0.1-6.6,0-10c0-1.899,0.2-3.899,0.3-5.8c0.1-2.6,0.4-5.2,0.4-7.899
			c0-2.801,0.6-5.5,0.9-8.2c0.1-1,0.6-1.8,1.4-2.5c0.7-0.5,1.8-0.4,2.1,0.399c0.3,0.601,0.6,1.301,0.7,1.9c0.7,4,1.3,7.9,1.9,11.9
			c0.5,3.6,1,7.1,1.4,10.699c0.1,1,0.1,1.9,0.2,2.9c0.2,1.9,0.4,3.9,0.5,5.8c0.1,1.2,0.2,2.5,0.3,3.7c0.1,2.8,0.2,5.5,0.2,8.3
			C449.8,803.4,449.9,803.4,449.9,803.4z"/>
		<path fill="#747474" d="M444.6,734.8c0.2,3-2.5,5.4-4.9,5.8c-1.2,0.2-2.6-0.399-3.2-1.399c-1.3-2.3-1.6-4.7-0.3-7.101
			c1.3-2.399,3.6-2.899,5.6-2.3c0.5,0.101,1,0.5,1.4,0.9C444.1,731.9,444.7,733.3,444.6,734.8z"/>
	</g>
	<g>
		<path fill="#737373" d="M343.1,883c1.1,0.7,2.2,1.3,3.2,1.6c1,0.301,2.1,0.5,3.2,0.5c1.4,0,2.5-0.3,3.3-1
			c0.8-0.699,1.2-1.6,1.2-2.699c0-1.7-1.5-3-4.4-4.101c-0.8-0.3-1.3-0.5-1.8-0.7c-1.6-0.6-2.8-1.399-3.6-2.399
			c-0.8-1-1.2-2.2-1.2-3.5c0-1.8,0.6-3.2,1.9-4.3c1.3-1.101,2.9-1.7,5-1.7c0.9,0,1.9,0.1,2.8,0.399c0.9,0.301,2,0.801,3,1.4v2.5
			c-1.1-0.7-2.1-1.2-3.1-1.6c-1-0.4-2-0.5-2.9-0.5c-1.3,0-2.3,0.3-3.2,1c-0.9,0.699-1.2,1.6-1.2,2.699c0,1,0.4,1.801,1.1,2.4
			c0.7,0.6,2.2,1.3,4.2,2.1c2.2,0.801,3.7,1.601,4.5,2.5c0.8,0.9,1.2,2.101,1.2,3.601c0,1.899-0.6,3.399-1.9,4.5
			c-1.3,1.1-3,1.7-5.2,1.7c-1.1,0-2.2-0.2-3.2-0.5c-1-0.301-2-0.801-3.1-1.4V883H343.1z"/>
		<path fill="#737373" d="M398.1,881.6c0,1.5,0.2,2.4,0.6,2.9c0.4,0.5,1.1,0.7,2.1,0.7c0.5,0,1.1-0.101,1.7-0.3
			c0.6-0.2,1.2-0.5,1.9-0.801v2.4c-0.7,0.3-1.3,0.5-2,0.7c-0.7,0.2-1.3,0.2-2,0.2c-1.8,0-3.1-0.4-3.8-1.301
			c-0.7-0.899-1.1-2.399-1.1-4.5v-14.3H391v-2h4.7V860.4l1.8-2.101h0.6v7.101h5.8v2h-5.8V881.6z"/>
		<path fill="#737373" d="M456,883.6c-1,1.301-2.2,2.2-3.4,2.801c-1.2,0.6-2.6,0.899-4.1,0.899c-2.5,0-4.3-0.8-5.7-2.3
			c-1.4-1.5-2-3.7-2-6.5v-13.3h2.4v12.1c0,2.601,0.5,4.601,1.4,5.8c0.9,1.2,2.3,1.9,4.2,1.9c1.5,0,2.9-0.4,4.1-1.1
			c1.2-0.7,2.3-1.9,3.2-3.4v-15.4h2.4v21.7H456V883.6z"/>
		<path fill="#737373" d="M513,885.3c-0.9,0.7-1.8,1.2-2.8,1.5s-2.101,0.5-3.3,0.5c-3.2,0-5.7-1-7.7-3.1c-2-2.101-2.9-4.8-2.9-8.101
			c0-3.3,1-6.1,2.9-8.1c1.899-2,4.5-3.1,7.7-3.1c1.199,0,2.3,0.199,3.3,0.5c1,0.3,1.899,0.8,2.8,1.5v-12.7h2.3V887H513V885.3z
			 M513,882.7v-13.3c-0.8-0.801-1.7-1.4-2.6-1.801c-0.9-0.399-2-0.6-3.2-0.6c-2.4,0-4.4,0.8-5.9,2.5s-2.3,3.9-2.3,6.6
			c0,2.7,0.8,4.9,2.3,6.601s3.5,2.5,5.9,2.5c1.2,0,2.3-0.2,3.2-0.601C511.3,884.2,512.2,883.5,513,882.7z"/>
		<path fill="#737373" d="M555.1,858.1v-4h2.5v4H555.1z M555.1,886.9v-21.7h2.5v21.7H555.1z"/>
		<path fill="#737373" d="M595.6,876.1c0-3.1,1.101-5.8,3.301-8c2.199-2.199,4.899-3.3,8-3.3c3.1,0,5.8,1.101,8,3.3
			c2.199,2.2,3.3,4.9,3.3,8c0,1.5-0.3,2.9-0.9,4.301c-0.6,1.399-1.399,2.6-2.5,3.699c-1.1,1.101-2.3,1.9-3.6,2.4s-2.8,0.8-4.3,0.8
			c-3.2,0-5.801-1.1-8-3.3C596.7,881.8,595.6,879.2,595.6,876.1z M598.3,876.1c0,2.5,0.8,4.601,2.5,6.4s3.7,2.6,6.101,2.6
			c2.399,0,4.399-0.899,6.1-2.6s2.5-3.9,2.5-6.4s-0.8-4.699-2.5-6.399s-3.7-2.601-6.1-2.601c-2.4,0-4.5,0.9-6.101,2.601
			C599.2,871.4,598.3,873.6,598.3,876.1z"/>
		<path fill="#737373" d="M654.8,883c1.101,0.7,2.2,1.3,3.2,1.6c1,0.301,2.1,0.5,3.2,0.5c1.399,0,2.5-0.3,3.3-1
			c0.8-0.699,1.2-1.6,1.2-2.699c0-1.7-1.5-3-4.4-4.101c-0.8-0.3-1.3-0.5-1.8-0.7c-1.6-0.6-2.8-1.399-3.6-2.399
			c-0.801-1-1.2-2.2-1.2-3.5c0-1.8,0.6-3.2,1.899-4.3c1.301-1.101,2.9-1.7,5-1.7c0.9,0,1.9,0.1,2.801,0.399
			c0.899,0.301,2,0.801,3,1.4v2.5c-1.101-0.7-2.101-1.2-3.101-1.6c-1-0.4-2-0.5-2.899-0.5c-1.301,0-2.301,0.3-3.2,1
			c-0.9,0.699-1.2,1.6-1.2,2.699c0,1,0.4,1.801,1.1,2.4c0.7,0.6,2.2,1.3,4.2,2.1c2.2,0.801,3.7,1.601,4.5,2.5
			c0.8,0.9,1.2,2.101,1.2,3.601c0,1.899-0.6,3.399-1.9,4.5c-1.3,1.1-3,1.7-5.199,1.7c-1.101,0-2.2-0.2-3.2-0.5
			c-1-0.301-2-0.801-3.101-1.4V883H654.8z"/>
	</g>
	
		<text transform="matrix(1 0 0 1 341.5059 812.9229)" display="none" fill="#737373" enable-background="new    " font-family="'Humanist521BT-Light'" font-size="48" letter-spacing="32">studios</text>
</g>
</svg>
