<?xml version="1.0" encoding="utf-8"?>
<!-- Generator: Adobe Illustrator 23.0.1, SVG Export Plug-In . SVG Version: 6.00 Build 0)  -->
<svg version="1.1" id="Layer_1" xmlns="http://www.w3.org/2000/svg" xmlns:xlink="http://www.w3.org/1999/xlink" x="0px" y="0px"
	 viewBox="0 0 841.9 595.3" style="enable-background:new 0 0 841.9 595.3;" height="50px" width="50px;" xml:space="preserve">
<g id="Layer_x0020_1">
	<g id="_2273602752736">
		<path d="M63.8,192.3h35.9v58.8l-2.2,19.2h2.2c3.3-5.6,8.4-10.4,15.3-14.5c6.9-4,15.5-6,25.7-6c8.6,0,16.7,1.8,24.5,5.4
			c7.7,3.5,14.5,8.4,20.5,14.8c5.9,6.3,10.6,13.8,14,22.5c3.5,8.8,5.3,18.4,5.3,28.7s-1.8,19.9-5.3,28.7c-3.5,8.7-8.1,16.3-14,22.5
			c-6,6.3-12.8,11.2-20.5,14.8c-7.8,3.6-15.9,5.3-24.5,5.3c-10.2,0-18.8-1.9-25.7-6s-12-8.9-15.3-14.5h-2.2v16.1H63.8V192.3z
			 M133.3,359.4c4.8,0,9.3-0.9,13.5-2.7c4.3-1.9,8.1-4.4,11.4-7.7c3.3-3.2,5.9-7.3,7.9-12c2-4.8,3-10,3-15.8c0-5.8-1-11.2-3-15.8
			c-2-4.8-4.6-8.8-7.9-12.1c-3.3-3.2-7.1-5.8-11.4-7.6c-4.2-1.8-8.8-2.7-13.5-2.7c-4.8,0-9.2,0.9-13.5,2.6
			c-4.2,1.7-8.1,4.2-11.3,7.6c-3.3,3.2-6,7.3-8,12c-1.9,4.8-3,10.1-3,16.1c0,6,1,11.4,3,16.1c2,4.8,4.7,8.8,8,12
			c3.2,3.3,7.1,5.8,11.3,7.6C124.1,358.5,128.5,359.4,133.3,359.4z"/>
		<path d="M327.7,372h-2.2c-3.3,5.6-8.4,10.4-15.3,14.5s-15.5,6-25.7,6c-8.6,0-16.7-1.7-24.5-5.3c-7.8-3.5-14.6-8.4-20.5-14.8
			c-5.9-6.3-10.6-13.8-14.1-22.5c-3.5-8.8-5.2-18.4-5.2-28.7s1.7-19.9,5.2-28.7c3.5-8.8,8.2-16.3,14.1-22.5
			c5.9-6.3,12.7-11.2,20.5-14.8c7.8-3.6,15.9-5.4,24.5-5.4c10.2,0,18.8,2,25.7,6c6.9,4,12,8.9,15.3,14.5h2.2l-2.2-19.2v-58.8h35.8
			v195.8h-33.6V372z M292,359.4c4.7,0,9.2-0.9,13.5-2.6c4.2-1.7,8.1-4.2,11.3-7.6c3.3-3.2,6-7.3,7.9-12c2-4.8,3-10.2,3-16.1
			c0-6-1-11.4-3-16.1c-1.9-4.8-4.6-8.8-7.9-12c-3.2-3.3-7.1-5.8-11.3-7.6c-4.3-1.7-8.9-2.6-13.5-2.6c-4.8,0-9.3,0.9-13.5,2.7
			c-4.3,1.8-8.1,4.4-11.4,7.6c-3.3,3.3-5.9,7.3-7.9,12.1c-2,4.7-3,10-3,15.8c0,5.8,1,11.1,3,15.8c2,4.8,4.6,8.8,7.9,12
			c3.2,3.3,7.1,5.8,11.4,7.7C282.7,358.5,287.2,359.4,292,359.4z"/>
		<path d="M436.2,389.4c-10,0-18.2-3.4-24.8-10.2c-6.5-6.9-9.7-15.4-9.7-25.6c0-10.3,3.2-18.9,9.7-25.6c6.6-6.8,14.8-10.2,24.8-10.2
			c6.8,0,12.7,1.7,17.9,5.1c5.1,3.5,8.9,8.1,11.5,14.2l-11.5,4.8c-3.5-8.4-9.8-12.6-18.7-12.6c-5.8,0-10.7,2.3-14.9,7
			c-4.1,4.6-6.1,10.4-6.1,17.2c0,6.8,2,12.6,6.1,17.2c4.2,4.7,9.1,7,14.9,7c9.2,0,15.7-4.2,19.4-12.6l11.2,4.8
			c-2.5,6-6.3,10.7-11.6,14.1C449.1,387.7,443.1,389.4,436.2,389.4z"/>
		<path d="M472.4,353.7c0-10.3,3.2-18.9,9.7-25.6c6.6-6.8,14.8-10.2,24.8-10.2c9.9,0,18.1,3.4,24.6,10.2c6.6,6.7,9.9,15.3,9.9,25.6
			c0,10.4-3.2,18.9-9.9,25.6c-6.5,6.8-14.6,10.2-24.6,10.2c-10,0-18.2-3.4-24.8-10.2C475.6,372.5,472.4,364,472.4,353.7z M485,353.7
			c0,7.2,2.1,13,6.3,17.5c4.2,4.5,9.4,6.7,15.6,6.7c6.2,0,11.4-2.2,15.6-6.7c4.2-4.5,6.3-10.3,6.3-17.5c0-7.1-2.1-12.9-6.3-17.4
			c-4.2-4.6-9.5-6.8-15.6-6.8c-6.1,0-11.4,2.2-15.6,6.8C487.1,340.8,485,346.6,485,353.7z"/>
		<path d="M582.9,377.9c6.2,0,11.2-2.2,15.1-6.7c4.1-4.5,6.2-10.3,6.2-17.5c0-7.1-2.1-12.8-6.2-17.4c-4-4.6-9.1-6.8-15.1-6.8
			s-11.1,2.2-15.2,6.8c-4.1,4.5-6.2,10.3-6.2,17.4c0,7.1,2.1,12.9,6.2,17.4C571.8,375.7,576.9,377.9,582.9,377.9z M580.8,389.4
			c-8.7,0-16.3-3.5-22.5-10.4c-6.2-7-9.3-15.4-9.3-25.3c0-9.9,3.1-18.3,9.3-25.3c6.3-7,13.8-10.4,22.5-10.4c4.9,0,9.4,1.1,13.5,3.2
			c4.1,2.1,7.2,4.9,9.4,8.4h0.6l-0.6-9.3v-31h12.6v97.9h-12v-9.3h-0.6c-2.2,3.5-5.3,6.3-9.4,8.4
			C590.2,388.4,585.7,389.4,580.8,389.4z"/>
		<path d="M660.9,389.4c-9.9,0-17.9-3.4-24.3-10.2c-6.4-6.8-9.6-15.3-9.6-25.6c0-10.2,3.1-18.7,9.3-25.5
			c6.2-6.8,14.2-10.2,23.8-10.2c9.9,0,17.9,3.2,23.7,9.6c5.9,6.4,8.9,15.4,8.9,27l-0.1,1.4h-52.6c0.1,6.6,2.4,11.9,6.6,15.9
			c4.2,4,9.2,6,15,6c8,0,14.3-4,18.9-12l11.2,5.5c-3,5.7-7.2,10.1-12.5,13.2C673.8,387.9,667.7,389.4,660.9,389.4z M640.9,345.7
			h38.4c-0.4-4.7-2.3-8.5-5.7-11.6c-3.5-3-8-4.5-13.8-4.5c-4.8,0-8.9,1.4-12.2,4.4C644.2,336.8,641.9,340.8,640.9,345.7z"/>
		<polygon points="712.6,392.6 778.1,392.6 776.1,403 710.6,403 		"/>
	</g>
</g>
</svg>
