<?xml version="1.0" encoding="utf-8"?>
<!-- Generator: Adobe Illustrator 16.0.0, SVG Export Plug-In . SVG Version: 6.00 Build 0)  -->
<!DOCTYPE svg PUBLIC "-//W3C//DTD SVG 1.1//EN" "http://www.w3.org/Graphics/SVG/1.1/DTD/svg11.dtd">
<svg version="1.1" id="Layer_1" xmlns="http://www.w3.org/2000/svg" xmlns:xlink="http://www.w3.org/1999/xlink" x="0px" y="0px"
	 width="1000px" height="1000px" viewBox="0 0 1000 1000" enable-background="new 0 0 1000 1000" xml:space="preserve">
<g id="Layer_2" display="none">
	<rect x="1" display="inline" width="1000" height="1000"/>
</g>
<circle fill="#FFFFFF" cx="500" cy="500" r="497.99"/>
<g id="Layer_1_1_">
	<g id="Layer_x0020_1">
		
			<radialGradient id="SVGID_1_" cx="608.1084" cy="332.2651" r="113.0329" gradientTransform="matrix(1 0 0 -1.2 -78 884.8813)" gradientUnits="userSpaceOnUse">
			<stop  offset="0.2806" style="stop-color:#4A7FE1"/>
			<stop  offset="1" style="stop-color:#305292"/>
		</radialGradient>
		<path fill="url(#SVGID_1_)" d="M664.276,503.887c1.802-1.477,5.736-8.361,5.899-11.639c-6.72-21.638-28.356-48.847-45.24-60.813
			l-20.489-14.424c-6.886-1.804-12.786-4.754-20.818-6.23c-9.835-1.966-15.409-1.639-25.243-1.639
			c-21.146,0.165-49.831,15.245-64.749,24.096c-19.177,11.311-59.993,28.85-59.993,28.85c-0.82,2.95-0.983,2.95-0.164-0.165
			c-6.065,2.13-13.606,3.443-20.163,4.263c-8.851,0.983-15.245-0.165-23.275,0c3.279,3.77,28.686,28.686,32.291,30.16v0.165
			c1.804-3.606,1.967-3.606,0.165,0.163c4.589,6.557,38.521,30.162,45.078,34.26c34.75,21.309,78.352,41.143,121.299,28.849
			c13.933-3.935,27.537-11.967,39.012-19.999c1.803-1.311,3.936-2.786,5.573-4.098 M631.655,524.377
			c-0.328,0.49-0.82,0.982-1.147,1.311C630.835,525.195,631.165,524.867,631.655,524.377L631.655,524.377z"/>
		<path fill="#E8E7E3" d="M564.449,382.423c2.13,0.984,6.885,6.884,9.344,9.18l27.865,22.948c1.477,1.146,1.804,1.311,2.788,2.294
			l20.489,14.424c16.884,12.13,38.521,39.34,45.24,60.814c2.459,4.918,3.606,11.475,4.59,17.375
			c0.493,3.277,0.82,6.722,0.984,10.326l-0.164,9.835c-0.327,1.477,0,0.493-0.655,1.639c-2.131-1.311-1.148-1.639-2.459-6.882
			c-2.459-9.345-4.754-12.459-7.867-20.49c-1.477-1.968-2.459-4.263-3.935-6.394c-1.148-1.803-3.279-4.426-3.771-6.394
			l-15.736-18.194c-2.132-2.787-5.573-6.228-8.032-8.524c-2.949-2.95-5.902-5.409-8.852-8.359
			c-6.557-6.393-28.686-25.244-38.521-29.014c-6.392,4.262-7.21,9.179-10.817,16.883c-4.263,27.375,7.377,38.357,26.718,53.602
			l15.572,11.966c4.918,3.77,13.604,10.982,16.393,15.572c1.476,0.328,1.476,0.819,2.458,2.296c0.983,1.31,1.64,1.802,2.46,3.113
			l4.097,5.901c3.936,3.606,9.016,16.556,9.836,23.604c4.098,33.932-29.505,41.636-42.455,22.785
			c-2.622-3.77-2.95-9.344-6.721-10.326c-3.441,0.491-5.409,1.474-7.539,3.278c-2.459,2.13-3.278,3.934-5.246,5.736
			c-1.804,7.048-4.755,13.114,0.328,22.458c5.081,9.342,12.457,9.835,15.572,12.62c8.688,0.165,10.326,1.967,21.636-2.95
			c8.688-3.77,13.771-9.344,19.179-13.442c6.722-5.243,9.836-10.981,16.393-16.718c2.458-2.133,5.245-3.771,7.867-5.574
			c18.195-13.77,29.505-51.962,29.342-76.059c-0.163-18.85,0-29.505-4.59-47.536c-3.278-13.277-8.524-27.373-14.917-37.864
			c-3.441-5.9-6.229-10.983-10.49-15.735c-8.195-9.344-17.539-19.016-30.324-22.458c-9.017-2.458-15.081-1.311-23.113,0.492
			c-0.983-1.476-17.538-14.096-22.784-19.507c-1.639-1.639-2.458-2.131-3.935-3.442l-16.227-19.014
			c-4.263-5.902-7.542-11.311-10.982-18.032c-6.065-12.294-10.983-28.03-11.475-45.569c-0.165-2.951-0.491-3.114-0.656-6.065
			l1.639-19.997c5.738-39.997,30.489-67.535,71.961-70.813c31.964-2.458,53.765,6.721,76.057,23.769
			c2.295,1.803,5.574,5.409,8.033,6.557c0.328-0.491,14.096-28.521,26.555-39.996c0.82-0.82,0-0.164,1.148-0.984
			c0.162,28.194,22.128,36.39,26.227,63.109l0.491,0.655c0-6.884,0.163-12.458-0.819-18.522
			c-3.936-23.768-18.032-47.537-37.211-62.125c-7.376-5.574-15.571-10.982-25.078-14.752c-21.31-8.524-47.045-9.015-68.354-2.623
			c-14.097,4.262-27.703,11.311-39.34,19.998l-10.983,9.18c-2.131,2.131-3.278,2.786-5.245,4.59
			c-6.229,6.064-17.212,20.49-21.801,27.21c-2.622,3.935-5.409,8.195-7.704,12.458c-10.818,21.474-16.064,34.751-20.162,59.502
			c-1.64,9.999-2.294,26.063-0.82,37.373c2.788,19.834,4.755,28.194,13.606,45.734c4.263,8.522,6.556,11.474,11.474,18.522
			C555.271,371.768,559.859,376.357,564.449,382.423L564.449,382.423L564.449,382.423z"/>
		<path fill="#55D6A3" d="M590.841,581.254c1.966-1.802,2.785-3.604,5.245-5.736c2.131-1.64,4.097-2.622,7.54-3.278
			c0.82-1.146,0.164-0.327,1.311-1.475c0.492-0.328,0.983-0.82,1.312-1.148l36.554-33.603l-4.099-5.9
			c-0.491,2.294-3.441,3.77-5.408,5.244c-1.64,1.147-3.77,2.787-5.572,4.098c-11.475,7.869-24.916,15.9-39.014,19.999
			c-43.11,12.294-86.712-7.54-121.3-28.849c-6.556-3.935-40.486-27.703-45.077-34.26c-3.605-1.474-29.177-26.39-32.291-30.16
			c8.031-0.165,14.752,0.983,23.275,0c6.721-0.82,14.261-2.132,20.163-4.263c23.44-7.868,40.814-17.703,59.993-28.849
			c14.917-8.852,43.601-23.933,64.748-24.096c2.787-1.476,7.376-0.492,10.654-1.148c-7.048-0.328-36.553-16.227-81.302-3.278
			c-44.586,12.951-78.518,46.062-122.284,67.862c-25.079,12.458-44.749,17.703-77.205,17.866
			c1.639,2.952,27.866,23.933,29.668,25.407c67.862,53.111,177.688,119.169,264.564,70.322
			C584.611,584.532,589.365,580.929,590.841,581.254z"/>
		<path fill="#50AEA0" d="M606.74,616.17c-3.278-2.786-10.654-3.278-15.572-12.622c-4.918-9.343-2.294-15.409-0.327-22.457
			c-1.313-0.328-6.065,3.441-8.361,4.754c-87.039,48.848-196.701-17.211-264.562-70.32c-1.804-1.477-27.866-22.458-29.67-25.408
			c32.455-0.164,52.125-5.409,77.206-17.868c43.602-21.8,77.533-54.913,122.282-67.861c44.915-12.95,74.419,2.95,81.303,3.278
			c-3.442,0.655-8.031-0.165-10.654,1.147c9.834-0.165,15.408-0.328,25.243,1.64c8.032,1.639,13.933,4.589,20.818,6.229
			c-0.82-0.985-1.148-1.148-2.788-2.295l-27.865-22.949c-2.459-2.131-7.376-8.031-9.344-9.179
			c-9.835-1.311-10.818-2.458-23.769-3.606c-25.898-2.131-47.864,1.803-71.467,11.311c-14.261,5.573-33.44,15.572-46.062,23.932
			l-59.83,38.357c-20.653,13.113-33.276,18.522-55.896,27.538c-9.507,3.77-23.112,6.885-33.767,8.524
			c-3.935,0.491-8.689,1.474-12.622,1.474c-5.902,0.165-6.722,0.491-12.294,0.491c-6.065,0-6.885-0.491-12.294-0.491
			c0.492,2.295,10.327,10,12.622,12.458c1.639,1.64,2.459,2.785,4.425,4.098c2.952,2.294,6.065,5.573,9.015,8.031
			c1.804,1.477,2.787,2.459,4.754,3.935l23.277,19.015c15.9,12.95,32.292,24.587,49.338,35.897c3.443,2.295,6.885,4.59,10.491,6.72
			c14.262,8.853,27.866,16.884,43.438,24.589c20.653,10.326,49.667,22.785,73.435,28.194
			c46.716,10.654,85.728,10.491,128.347-10.655c3.77-1.803,7.213-4.261,10.982-6.229h0.164V616.17z"/>
		<path fill="#50AEA0" d="M603.626,572.239c3.606,0.983,3.934,6.557,6.721,10.327c12.95,18.687,46.717,10.982,42.455-22.784
			c-0.82-7.213-6.065-19.999-9.835-23.605l-36.554,33.604c-0.493,0.328-0.984,0.656-1.313,1.147
			C603.626,571.912,604.28,571.093,603.626,572.239z"/>
		<path fill="#FA6A00" d="M718.203,217.849c10.492,12.949,20.818,32.948,21.967,49.503c0.328,5.901-0.82,4.425,1.802,8.523
			c3.606,0,3.606-0.327,5.246-2.786c8.032-12.129,16.229-28.521,16.229-43.931l-0.491-0.655l-22.457-25.734
			C736.071,204.409,723.449,215.063,718.203,217.849L718.203,217.849z"/>
		<path d="M709.025,206.539c1.147,2.131,2.786,3.77,4.588,5.573c1.477,1.312,3.936,4.262,4.756,5.901
			c5.408-2.787,18.031-13.441,22.457-15.081l22.455,25.736c-4.099-26.719-25.899-34.751-26.228-63.109
			c-1.146,0.82-0.325,0.164-1.146,0.984C723.286,177.854,709.517,206.048,709.025,206.539L709.025,206.539z"/>
		<path fill="#50AEA0" d="M664.11,503.887c3.279,8.031,5.411,11.146,7.87,20.49c1.474,5.243,0.491,5.408,2.458,6.882
			c0.655-0.981,0.327-0.162,0.655-1.639l0.165-9.835c-0.165-3.442-0.493-6.883-0.984-10.326c-0.983-5.9-2.131-12.457-4.59-17.375
			C669.848,495.362,665.914,502.41,664.11,503.887L664.11,503.887z"/>
	</g>
	<g>
		<path fill="#747474" d="M373.157,701.57c-0.163,1.803-0.163,3.607-0.163,5.409c0,0.82-0.164,1.639-0.656,2.131
			c-0.164,0.328-0.492,0.492-0.983,0.492c-0.328,0-0.82-0.328-0.82-0.492c-0.328-0.982-0.656-1.966-0.819-2.95
			c-0.328-2.787-0.983-5.572-1.803-8.359c-0.493-2.131-1.476-4.263-2.132-6.229c-0.819-2.133-2.13-4.099-3.933-5.902
			c-3.278-3.278-7.542-4.097-11.803-2.294c-2.295,0.983-4.261,2.46-5.9,4.262c-3.115,3.441-5.083,7.54-6.23,11.966
			c-0.655,2.623-0.82,5.408-0.983,8.032c-0.163,5.737,1.148,11.146,3.77,16.227c2.295,4.755,5.246,9.017,8.523,12.95
			c3.279,3.935,6.557,7.705,9.835,11.639c3.607,4.263,6.72,9.015,9.179,14.097c1.313,2.788,2.132,5.573,2.787,8.524
			c0.165,0.82,0.165,1.474,0.328,2.294c0.328,3.115,0.328,6.229-0.164,9.344c-0.819,7.213-3.278,13.604-8.032,19.179
			c-3.606,4.262-8.196,6.72-13.77,7.704c-0.983,0.164-2.131,0.326-3.113,0.492c-2.787,0.49-5.409,0.162-8.033-0.656
			c-1.803-0.492-3.278-1.476-4.426-2.95c-1.311-1.803-1.639-3.77-1.146-5.901c0.163-0.818,0.982-1.639,1.965-1.639
			c1.313,0,2.458,0.164,3.935,0.492c1.967,0.49,4.098,0.982,6.065,1.474c3.441,0.82,6.885,0.493,10.49-0.327
			c3.115-0.984,5.574-2.786,7.376-5.41c2.787-4.261,3.606-9.179,2.952-14.259c-0.493-4.592-1.967-8.853-4.263-12.95
			c-2.459-4.427-5.572-8.524-9.016-12.295c-3.607-3.935-7.376-7.704-10.983-11.638c-3.933-3.935-6.883-8.524-9.507-13.44
			c-1.802-3.606-3.278-7.377-3.933-11.312c-0.328-2.131-0.493-4.426-0.493-6.557c-0.164-4.753,0.328-9.344,1.804-13.769
			c2.13-6.557,5.572-12.293,10.655-17.047c3.278-3.116,7.048-5.246,11.637-6.066c6.722-1.147,13.442,1.148,17.376,7.048
			c1.802,2.787,2.95,5.902,3.605,9.017C372.994,695.014,372.994,698.292,373.157,701.57z"/>
		<path fill="#747474" d="M392.335,740.583c0-4.099,0-8.031,0-12.13c0-3.114,0-6.229,0.492-9.343
			c0.165-0.984,0.165-1.805,0.165-2.787c-0.165-4.426,0.492-8.852,0.983-13.277c0.656-4.917,1.311-9.999,2.95-14.917
			c0.493-1.64,0.984-3.278,1.803-4.753c0.492-1.313,1.475-2.458,2.294-3.606c0.656-0.984,1.639-1.639,2.787-2.13
			c1.804-0.82,3.607-0.328,4.754,1.311c0.492,0.655,0.82,1.312,1.148,1.968c0.819,2.13,1.474,4.098,1.639,6.392
			c0.655,5.737,0.163,11.311-1.148,17.048c-1.967,7.868-4.589,15.407-8.033,22.783c-1.802,4.099-1.802,2.952-1.639,7.87
			c0.166,3.441,0.328,6.72,0.492,10.162c0.165,1.803,0.165,3.606,0.165,5.41c0.164,4.589,0.164,9.179,0.655,13.604
			c0.165,1.311,0.165,2.622,0.165,3.934c0.163,2.951,0.163,6.064,0.491,9.015c0.164,1.64,0.164,3.444,0.328,5.083
			c0.164,0.655,0.164,1.312,0.328,1.802c0.164,0.166,0.327,0.328,0.492,0.491c0.163,0.165,0.491,0,0.655-0.163
			c0.328-0.656,0.819-1.311,1.147-2.13c1.64-3.935,3.607-7.868,5.574-11.64c1.639-2.785,3.442-5.571,5.409-8.031
			c1.311-1.639,2.787-3.114,4.589-4.263c0.984-0.491,1.804-0.982,2.95-0.982c1.64-0.163,3.115,0.328,4.426,1.147
			c1.639,1.147,2.951,2.622,3.935,4.262c0.983,1.64,1.802,3.442,2.458,5.246c1.475,3.935,2.459,7.867,3.607,11.966
			c1.311,4.917,2.458,9.834,3.605,14.752c0.165,0.819,0.328,1.476,0.493,2.295c0.164,1.803-0.656,3.278-2.132,4.262
			c-1.475,1.148-3.934,0.82-4.753-0.819c-0.656-1.148-1.311-2.294-1.639-3.442c-0.985-2.458-1.805-5.246-2.459-7.868
			c-1.804-6.229-3.606-12.458-4.917-18.85c-0.328-1.476-0.82-2.951-1.476-4.427c-0.492-0.818-0.983-1.475-1.639-2.13
			c-1.148-0.984-2.787-0.984-3.933,0.327c-0.656,0.818-1.313,1.639-1.64,2.458c-0.819,1.64-1.476,3.278-2.132,4.918
			c-1.802,4.917-4.098,9.671-6.72,14.098c-0.82,1.475-1.803,2.787-2.95,4.098c-0.492,0.655-1.312,1.312-2.131,1.802
			c-2.295,1.477-4.917,0.985-6.557-1.474c-0.493-0.82-0.819-1.639-1.147-2.458c-0.492-1.805-1.148-3.772-1.476-5.574
			c-0.328-2.459-0.983-4.755-0.983-7.377c-0.984-5.246-0.656-10.654-1.311-15.9c-0.328-1.802-0.165-3.932-0.165-5.899
			C392.335,749.271,392.335,744.846,392.335,740.583L392.335,740.583z M407.253,691.899c-0.165-2.132-0.165-4.426-0.165-6.558
			c0-1.311-0.328-2.459-0.983-3.604c-0.492-1.147-2.131-1.313-2.951-0.328c-0.328,0.328-0.656,0.82-0.819,1.311
			c-0.328,1.148-0.82,2.131-1.148,3.279c-0.819,4.097-1.476,8.195-1.476,12.293c0,6.72,0.165,13.605,0.491,20.162
			c0,0.328,0.165,0.819,0.328,1.147c0.166,0.329,0.328,0.491,0.492,0.329c0.165,0,0.328,0,0.328-0.166
			c0.328-0.326,0.656-0.819,0.819-1.311C405.286,709.767,407.417,701.08,407.253,691.899z"/>
		<path fill="#747474" d="M482.819,756.812c0.163-2.296,0.163-4.755,0.163-7.048c0-0.656,0.328-1.148,0.82-1.64
			c0.328-0.328,0.984-0.493,1.475-0.165c0.329,0.328,0.82,0.82,0.983,1.148c0.656,1.476,1.148,2.786,1.64,4.26
			c2.132,6.066,3.771,12.459,5.41,18.688c0.82,2.95,1.64,5.736,2.459,8.687c0.327,0.82,0.82,1.64,1.146,2.46
			c0.328,0.656,1.476,0.818,2.132,0.328c0.82-0.492,1.475-1.148,1.966-1.804c1.313-1.803,2.787-3.935,4.099-5.736
			c2.132-3.116,4.263-6.23,6.721-9.181c0.819-0.983,1.475-1.802,2.294-2.622c1.476-1.476,3.278-2.13,5.246-2.13
			c1.804-0.166,3.606,0.49,4.918,1.802c1.804,1.639,3.278,3.442,4.263,5.574c1.146,2.294,2.293,4.752,3.277,7.048
			c0.492,1.147,0.983,2.295,1.64,3.606c0.326,0.492,0.654,1.148,0.982,1.639c0.82,1.148,2.459,1.476,3.442,0.492
			c1.147-0.82,2.132-1.803,3.114-2.95c1.64-1.64,2.95-3.606,4.59-5.409c1.312-1.639,2.786-3.115,4.59-4.264
			c1.313-0.981,2.786-1.146,4.426-0.981c0.819,0.163,1.476,0.328,2.131,0.981c0.819,0.82,1.64,1.805,2.132,2.788
			c0.982,1.802,1.803,3.606,2.622,5.573c2.458,6.063,3.935,12.294,5.408,18.686c0.492,2.788,0.984,5.41,0.82,8.033
			c0,0.491-0.164,0.982-0.328,1.476c-0.164,0.82-1.311,1.474-2.131,1.146c-0.983-0.162-1.64-0.653-2.293-1.311
			c-0.985-0.982-1.477-2.131-2.133-3.277c-1.312-2.788-2.13-5.901-2.785-9.017c-0.984-4.098-2.133-8.359-3.115-12.456
			c-0.328-1.148-0.656-2.296-1.147-3.279c-0.328-0.491-0.656-1.147-0.983-1.639c-0.984-0.984-2.295-1.312-3.606-0.82
			c-1.311,0.492-2.295,1.312-3.115,2.294c-2.131,2.459-4.098,5.083-6.065,7.541c-1.474,1.804-2.95,3.607-4.752,5.246
			c-0.82,0.655-1.64,1.146-2.459,1.803c-0.819,0.491-1.476,0.327-2.131-0.163c-0.984-0.656-1.639-1.64-2.295-2.624
			c-1.148-2.294-2.131-4.752-3.279-7.212c-0.982-2.295-1.967-4.754-2.95-7.213c-0.49-0.981-0.984-2.13-1.639-3.114
			c-0.491-0.82-1.147-1.475-1.804-2.132c-1.312-1.146-3.278-1.146-4.753-0.162c-1.147,0.819-2.131,1.967-2.787,3.278
			c-1.802,3.278-3.606,6.557-5.408,9.835c-2.296,4.098-4.59,8.195-6.885,12.294c-0.82,1.147-1.639,2.294-2.459,3.606
			c-0.656,0.819-1.476,1.474-2.295,1.966c-0.983,0.492-2.131,0.328-2.786-0.492c-0.819-0.982-1.147-2.13-1.476-3.278
			c-1.476-4.589-2.787-9.178-3.607-13.933c-0.819-3.934-1.802-7.868-2.293-11.803C483.31,766.646,482.491,761.729,482.819,756.812z"
			/>
		<path fill="#747474" d="M583.464,758.778c-0.164-2.951-0.164-5.901,0.164-9.015c0.163-1.477,0.491-2.133,1.312-2.133
			c1.146,0,1.475,0.984,1.803,1.64c0.492,0.984,0.82,1.804,1.147,2.951c0.984,3.278,2.132,6.392,2.951,9.67
			c1.312,4.755,2.622,9.508,3.933,14.262c0.492,1.803,0.985,3.771,1.641,5.573c0.164,0.492,0.656,1.147,0.984,1.64
			c0.325,0.326,1.146,0.492,1.474,0.326c0.491-0.326,1.147-0.654,1.476-1.146c0.982-1.148,1.803-2.296,2.622-3.443
			c1.639-2.294,3.115-4.59,4.59-6.72c1.476-2.131,3.115-4.098,4.753-6.229c0.656-0.818,1.477-1.475,2.132-2.295
			c1.476-1.476,3.442-1.968,5.408-1.968c1.64,0,2.952,0.492,4.263,1.477c1.968,1.64,3.607,3.77,4.754,6.065
			c1.313,2.787,2.458,5.408,3.771,8.03c0.327,0.82,0.819,1.64,1.146,2.46c0.328,0.492,0.819,0.984,1.147,1.475
			c0.656,0.82,2.131,0.983,2.951,0.328c0.818-0.656,1.639-1.146,2.295-1.967c1.64-1.64,3.114-3.606,4.59-5.246
			c1.147-1.147,2.295-2.621,3.442-3.77c0.655-0.656,1.476-1.148,2.132-1.639c1.146-0.819,2.621-1.147,4.097-1.147
			c1.147,0.164,2.131,0.491,2.787,1.31c0.492,0.494,0.982,1.148,1.475,1.805c0.984,1.64,1.804,3.441,2.624,5.246
			c2.294,5.572,3.932,11.638,5.243,17.538c0.493,2.295,0.984,4.591,1.313,6.885c0.163,1.312,0.163,2.624,0.163,3.935
			c0,0.491-0.328,1.147-0.82,1.803c-0.328,0.49-1.147,0.818-1.64,0.656c-0.981-0.166-1.802-0.656-2.295-1.312
			c-0.654-0.819-1.146-1.64-1.803-2.458c-1.475-2.624-2.295-5.574-2.95-8.524c-0.984-4.099-2.13-8.36-3.114-12.459
			c-0.328-1.146-0.655-2.458-1.148-3.77c-0.326-0.82-0.819-1.64-1.311-2.294c-0.819-1.148-2.295-1.477-3.441-0.984
			c-0.82,0.328-1.64,0.819-2.296,1.476c-0.819,0.819-1.64,1.803-2.294,2.622c-1.804,2.295-3.771,4.755-5.574,7.049
			c-1.475,1.804-2.786,3.442-4.589,4.754c-2.459,1.967-3.605,1.967-5.737-0.983c-0.656-0.984-1.147-2.13-1.639-3.114
			c-0.819-2.132-1.64-4.099-2.459-6.066c-0.984-2.458-1.967-4.752-2.95-7.211c-0.493-1.313-1.313-2.459-2.459-3.443
			c-1.476-1.474-3.771-1.474-5.41-0.163c-1.147,0.982-1.966,2.131-2.622,3.441c-2.131,3.935-4.262,7.704-6.394,11.639
			c-1.966,3.441-4.099,6.884-6.064,10.49c-0.656,1.147-1.476,2.131-2.132,3.279c-0.654,0.818-1.474,1.475-2.294,1.967
			c-0.984,0.491-2.13,0.328-2.786-0.492c-0.492-0.656-0.82-1.311-1.148-2.13c-0.982-2.95-1.802-6.065-2.622-9.017
			c-1.476-5.244-2.624-10.326-3.442-15.571c-0.492-3.278-1.147-6.722-1.147-10C583.628,762.22,583.464,760.418,583.464,758.778z"/>
		<path fill="#747474" d="M685.257,749.436c0-3.116,0-6.723,0-10.327c0-1.313,0.163-2.624,0.328-3.936
			c0.163-1.475,2.459-2.294,3.606-1.475c0.327,0.165,0.491,0.493,0.819,0.818c0.327,0.82,0.492,1.477,0.655,2.296
			c0.165,0.492,0.984,0.983,1.639,0.82c0.984-0.328,1.968-0.492,2.95-0.82c2.788-0.819,5.411-1.64,8.36-2.13
			c2.132-0.491,4.427-0.491,6.558-0.656c0.328,0,0.819,0.165,1.147,0.165c1.475,0.163,2.293,0.981,2.95,2.13
			c0.819,1.64,0.163,3.278-1.639,3.606c-1.805,0.327-3.935,0.491-5.738,0.983c-3.114,0.656-6.064,1.639-8.851,2.786
			c-0.983,0.492-2.132,0.983-3.114,1.64c-1.147,0.82-1.804,1.967-1.64,3.278c0.327,2.95,0.327,5.9,0.82,9.016
			c0.491,3.278,0.819,6.557,1.146,9.671c0.328,2.294,0.493,4.591,0.82,6.884c0.328,3.278,0.819,6.395,1.147,9.673
			c0.492,5.08,1.148,9.998,1.311,15.08c0,0.982-0.162,1.803-0.326,2.786c-0.164,0.818-0.819,1.475-1.64,1.638
			c-2.132,0.493-4.098,0.165-5.736-1.474c-0.656-0.819-1.313-1.64-1.64-2.624c-0.493-1.146-1.147-2.458-1.147-3.604
			c-0.329-2.459-0.985-5.082-0.985-7.704c0-3.279-0.162-6.558-0.49-9.672c0-0.328-0.164-0.492-0.164-0.82
			c-0.328-6.885-0.656-13.768-0.984-20.652C685.257,754.352,685.257,752.057,685.257,749.436z"/>
		<path fill="#747474" d="M466.264,794.021c0,2.786,0,5.41,0,8.196c0,0.982-0.165,1.802-0.165,2.785
			c-0.163,0.656-0.491,1.148-1.147,1.477c-1.803,0.818-3.442,0.818-5.245-0.163c-0.819-0.329-1.147-0.985-1.476-1.805
			c-0.164-0.492-0.164-0.983-0.328-1.474c-0.164-1.64-0.328-3.444-0.492-5.083c0-0.163,0-0.328-0.163-0.328
			c-0.328-4.753-0.656-9.342-0.82-14.096c-0.165-3.116-0.165-6.229,0-9.345c0-1.802,0.164-3.606,0.327-5.408
			c0.165-2.459,0.328-4.918,0.328-7.376c0-2.623,0.492-5.246,0.82-7.706c0.165-0.981,0.491-1.639,1.311-2.293
			c0.656-0.493,1.639-0.328,1.967,0.326c0.328,0.493,0.491,1.148,0.656,1.805c0.655,3.77,1.148,7.376,1.803,11.146
			c0.491,3.441,0.984,6.72,1.311,9.998c0.165,0.984,0.165,1.804,0.165,2.786c0.164,1.805,0.328,3.606,0.492,5.41
			c0.163,1.146,0.163,2.295,0.328,3.442c0.163,2.622,0.163,5.246,0.163,7.868C466.264,794.021,466.264,794.021,466.264,794.021z"/>
		<path fill="#747474" d="M461.346,729.601c0.164,2.786-2.295,5.082-4.591,5.41c-1.146,0.162-2.459-0.328-2.95-1.313
			c-1.148-2.131-1.475-4.425-0.328-6.72c1.147-2.296,3.443-2.788,5.246-2.132c0.492,0.164,0.984,0.492,1.311,0.82
			C460.853,726.814,461.346,728.125,461.346,729.601z"/>
	</g>
	<g>
		<path fill="#737373" d="M365.78,868.931c0.984,0.656,2.132,1.147,2.952,1.476c0.983,0.328,1.966,0.49,2.95,0.49
			c1.311,0,2.294-0.328,3.113-0.981c0.82-0.656,1.148-1.477,1.148-2.46c0-1.639-1.474-2.786-4.098-3.935
			c-0.819-0.328-1.147-0.49-1.639-0.654c-1.474-0.492-2.622-1.313-3.442-2.296c-0.819-0.982-1.147-2.13-1.147-3.278
			c0-1.638,0.491-2.949,1.802-4.098c1.148-0.982,2.787-1.639,4.754-1.639c0.82,0,1.803,0.163,2.622,0.328
			c0.82,0.328,1.804,0.819,2.787,1.311v2.296c-0.983-0.656-1.967-1.147-2.95-1.476s-1.803-0.492-2.787-0.492
			c-1.147,0-2.13,0.328-2.95,0.983c-0.82,0.656-1.148,1.477-1.148,2.458c0,0.984,0.328,1.64,0.985,2.296
			c0.655,0.491,2.13,1.147,3.933,1.967c2.13,0.82,3.443,1.476,4.263,2.294c0.82,0.82,1.146,1.968,1.146,3.444
			c0,1.802-0.492,3.278-1.803,4.261s-2.787,1.64-4.917,1.64c-0.983,0-2.131-0.164-2.951-0.492c-0.984-0.328-1.804-0.819-2.95-1.311
			v-2.296h0.326V868.931z"/>
		<path fill="#737373" d="M417.579,867.619c0,1.476,0.164,2.296,0.492,2.787c0.328,0.49,0.983,0.656,1.967,0.656
			c0.492,0,0.983-0.166,1.639-0.328c0.492-0.166,1.148-0.491,1.803-0.819v2.293c-0.655,0.328-1.148,0.493-1.803,0.657
			c-0.656,0.163-1.147,0.163-1.804,0.163c-1.64,0-2.951-0.327-3.605-1.146c-0.656-0.819-0.984-2.295-0.984-4.263v-13.441h-4.261
			v-1.803h4.426v-4.589l1.639-1.968h0.491v6.72h5.409v1.805h-5.409V867.619L417.579,867.619z"/>
		<path fill="#737373" d="M472,869.587c-0.984,1.147-2.132,2.13-3.278,2.621c-1.148,0.493-2.459,0.82-3.935,0.82
			c-2.295,0-4.098-0.82-5.409-2.132c-1.311-1.474-1.804-3.441-1.804-6.064v-12.457h2.295v11.312c0,2.458,0.491,4.261,1.311,5.408
			c0.819,1.148,2.131,1.802,3.935,1.802c1.474,0,2.787-0.328,3.933-0.981c1.147-0.656,2.132-1.805,2.952-3.278v-14.425h2.294v20.489
			H472V869.587L472,869.587z"/>
		<path fill="#737373" d="M525.6,871.063c-0.819,0.654-1.638,1.146-2.621,1.474c-0.982,0.329-1.967,0.492-3.115,0.492
			c-2.95,0-5.409-0.983-7.212-2.95c-1.804-1.968-2.786-4.59-2.786-7.704s0.982-5.738,2.786-7.54c1.803-1.803,4.262-2.95,7.212-2.95
			c1.148,0,2.133,0.163,3.115,0.491c0.983,0.328,1.802,0.819,2.621,1.476v-11.967h2.133v30.817H525.6V871.063z M525.6,868.767
			v-12.456c-0.819-0.82-1.638-1.314-2.458-1.64c-0.819-0.328-1.802-0.493-2.95-0.493c-2.294,0-4.098,0.818-5.572,2.295
			c-1.476,1.64-2.132,3.606-2.132,6.229s0.819,4.589,2.132,6.229c1.475,1.638,3.278,2.295,5.572,2.295
			c1.148,0,2.131-0.163,2.95-0.491C524.126,870.078,524.946,869.423,525.6,868.767z"/>
		<path fill="#737373" d="M565.269,845.49v-3.771h2.295v3.771H565.269z M565.269,872.701v-20.489h2.295v20.489H565.269z"/>
		<path fill="#737373" d="M603.298,862.538c0-2.95,0.982-5.409,3.115-7.542c2.131-2.13,4.59-3.112,7.54-3.112
			c2.949,0,5.408,0.982,7.539,3.112c2.133,2.133,3.115,4.592,3.115,7.542c0,1.475-0.328,2.787-0.82,4.099
			c-0.49,1.311-1.311,2.458-2.295,3.441c-0.983,0.984-2.131,1.804-3.441,2.295c-1.312,0.492-2.622,0.82-4.098,0.82
			c-2.95,0-5.409-0.985-7.54-3.115C604.446,867.784,603.298,865.325,603.298,862.538z M605.92,862.538
			c0,2.294,0.82,4.261,2.296,6.065c1.476,1.803,3.44,2.459,5.737,2.459c2.295,0,4.098-0.819,5.737-2.459
			c1.639-1.639,2.295-3.606,2.295-6.065c0-2.296-0.82-4.426-2.295-6.065c-1.64-1.639-3.442-2.458-5.737-2.458
			c-2.297,0-4.262,0.819-5.737,2.458C606.74,858.112,605.92,860.079,605.92,862.538z"/>
		<path fill="#737373" d="M659.03,868.931c0.983,0.656,2.13,1.147,2.95,1.476c0.984,0.328,1.968,0.49,2.949,0.49
			c1.313,0,2.296-0.328,3.116-0.981c0.819-0.656,1.146-1.477,1.146-2.46c0-1.639-1.475-2.786-4.097-3.935
			c-0.819-0.328-1.147-0.49-1.64-0.654c-1.476-0.492-2.624-1.313-3.442-2.296c-0.82-0.982-1.147-2.13-1.147-3.278
			c0-1.638,0.492-2.949,1.804-4.098c1.146-0.982,2.786-1.639,4.754-1.639c0.818,0,1.802,0.163,2.622,0.328
			c0.819,0.328,1.802,0.819,2.786,1.311v2.296c-0.984-0.656-1.967-1.147-2.949-1.476c-0.985-0.328-1.805-0.492-2.787-0.492
			c-1.147,0-2.131,0.328-2.95,0.983c-0.819,0.656-1.147,1.477-1.147,2.458c0,0.984,0.328,1.64,0.982,2.296
			c0.656,0.491,2.13,1.147,3.934,1.967c2.132,0.82,3.442,1.476,4.262,2.294c0.82,0.82,1.148,1.968,1.148,3.444
			c0,1.802-0.492,3.278-1.803,4.261c-1.313,0.982-2.787,1.64-4.917,1.64c-0.984,0-2.133-0.164-2.952-0.492
			c-0.982-0.328-1.803-0.819-2.95-1.311v-2.296h0.328V868.931z"/>
	</g>
	
		<text transform="matrix(1 0 0 1 364.3262 803.042)" display="none" fill="#737373" enable-background="new    " font-family="'Humanist521BT-Light'" font-size="45.157" letter-spacing="29">studios</text>
</g>
</svg>
