<?xml version="1.0" encoding="utf-8"?>
<!-- Generator: Adobe Illustrator 23.0.3, SVG Export Plug-In . SVG Version: 6.00 Build 0)  -->
<svg version="1.1" id="Layer_1" xmlns="http://www.w3.org/2000/svg" xmlns:xlink="http://www.w3.org/1999/xlink" x="0px" y="0px"
	 viewBox="0 0 1000 1000" style="enable-background:new 0 0 1000 1000;" xml:space="preserve">
<style type="text/css">
	.st0{display:none;}
	.st1{display:inline;}
	.st2{fill:url(#SVGID_1_);}
	.st3{fill:#E8E7E3;}
	.st4{fill:#55D6A3;}
	.st5{fill:#50AEA0;}
	.st6{fill:#FA6A00;}
	.st7{fill:#FFFFFF;}
	.st8{fill:#747474;}
	.st9{display:none;fill:#737373;enable-background:new    ;}
	.st10{font-family:'ArialMT';}
	.st11{font-size:45.157px;}
	.st12{letter-spacing:28;}
</style>
<g class="st0">
	<rect x="1" class="st1" width="1000" height="1000"/>
</g>
<circle cx="500" cy="500" r="498"/>
<g id="Layer_1_1_">
	<g id="Layer_x0020_1">
		
			<radialGradient id="SVGID_1_" cx="608.108" cy="209.4016" r="113.0332" gradientTransform="matrix(1 0 0 1.2 -78 234.8813)" gradientUnits="userSpaceOnUse">
			<stop  offset="0.2806" style="stop-color:#4A7FE1"/>
			<stop  offset="1" style="stop-color:#305292"/>
		</radialGradient>
		<path class="st2" d="M664.3,503.9c1.8-1.5,5.7-8.4,5.9-11.6c-6.7-21.6-28.4-48.8-45.2-60.8L604.4,417c-6.9-1.8-12.8-4.8-20.8-6.2
			c-9.8-2-15.4-1.6-25.2-1.6c-21.1,0.2-49.8,15.2-64.7,24.1c-19.2,11.3-60,28.9-60,28.9c-0.8,3-1,3-0.2-0.2
			c-6.1,2.1-13.6,3.4-20.2,4.3c-8.9,1-15.2-0.2-23.3,0c3.3,3.8,28.7,28.7,32.3,30.2v0.2c1.8-3.6,2-3.6,0.2,0.2
			c4.6,6.6,38.5,30.2,45.1,34.3c34.8,21.3,78.4,41.1,121.3,28.8c13.9-3.9,27.5-12,39-20c1.8-1.3,3.9-2.8,5.6-4.1 M631.7,524.4
			c-0.3,0.5-0.8,1-1.1,1.3C630.8,525.2,631.2,524.9,631.7,524.4L631.7,524.4z"/>
		<path class="st3" d="M564.4,382.4c2.1,1,6.9,6.9,9.3,9.2l27.9,22.9c1.5,1.1,1.8,1.3,2.8,2.3l20.5,14.4
			c16.9,12.1,38.5,39.3,45.2,60.8c2.5,4.9,3.6,11.5,4.6,17.4c0.5,3.3,0.8,6.7,1,10.3l-0.2,9.8c-0.3,1.5,0,0.5-0.7,1.6
			c-2.1-1.3-1.1-1.6-2.5-6.9c-2.5-9.3-4.8-12.5-7.9-20.5c-1.5-2-2.5-4.3-3.9-6.4c-1.1-1.8-3.3-4.4-3.8-6.4l-15.7-18.2
			c-2.1-2.8-5.6-6.2-8-8.5c-2.9-3-5.9-5.4-8.9-8.4c-6.6-6.4-28.7-25.2-38.5-29c-6.4,4.3-7.2,9.2-10.8,16.9
			c-4.3,27.4,7.4,38.4,26.7,53.6l15.6,12c4.9,3.8,13.6,11,16.4,15.6c1.5,0.3,1.5,0.8,2.5,2.3c1,1.3,1.6,1.8,2.5,3.1l4.1,5.9
			c3.9,3.6,9,16.6,9.8,23.6c4.1,33.9-29.5,41.6-42.5,22.8c-2.6-3.8-3-9.3-6.7-10.3c-3.4,0.5-5.4,1.5-7.5,3.3
			c-2.5,2.1-3.3,3.9-5.2,5.7c-1.8,7-4.8,13.1,0.3,22.5c5.1,9.3,12.5,9.8,15.6,12.6c8.7,0.2,10.3,2,21.6-3
			c8.7-3.8,13.8-9.3,19.2-13.4c6.7-5.2,9.8-11,16.4-16.7c2.5-2.1,5.2-3.8,7.9-5.6c18.2-13.8,29.5-52,29.3-76.1
			c-0.2-18.9,0-29.5-4.6-47.5c-3.3-13.3-8.5-27.4-14.9-37.9c-3.4-5.9-6.2-11-10.5-15.7c-8.2-9.3-17.5-19-30.3-22.5
			c-9-2.5-15.1-1.3-23.1,0.5c-1-1.5-17.5-14.1-22.8-19.5c-1.6-1.6-2.5-2.1-3.9-3.4l-16.2-19c-4.3-5.9-7.5-11.3-11-18
			c-6.1-12.3-11-28-11.5-45.6c-0.2-3-0.5-3.1-0.7-6.1l1.6-20c5.7-40,30.5-67.5,72-70.8c32-2.5,53.8,6.7,76.1,23.8
			c2.3,1.8,5.6,5.4,8,6.6c0.3-0.5,14.1-28.5,26.6-40c0.8-0.8,0-0.2,1.1-1c0.2,28.2,22.1,36.4,26.2,63.1l0.5,0.7
			c0-6.9,0.2-12.5-0.8-18.5c-3.9-23.8-18-47.5-37.2-62.1c-7.4-5.6-15.6-11-25.1-14.8c-21.3-8.5-47-9-68.4-2.6
			c-14.1,4.3-27.7,11.3-39.3,20l-11,9.2c-2.1,2.1-3.3,2.8-5.2,4.6c-6.2,6.1-17.2,20.5-21.8,27.2c-2.6,3.9-5.4,8.2-7.7,12.5
			c-10.8,21.5-16.1,34.8-20.2,59.5c-1.6,10-2.3,26.1-0.8,37.4c2.8,19.8,4.8,28.2,13.6,45.7c4.3,8.5,6.6,11.5,11.5,18.5
			C555.3,371.8,559.9,376.4,564.4,382.4L564.4,382.4L564.4,382.4z"/>
		<path class="st4" d="M590.8,581.3c2-1.8,2.8-3.6,5.2-5.7c2.1-1.6,4.1-2.6,7.5-3.3c0.8-1.1,0.2-0.3,1.3-1.5c0.5-0.3,1-0.8,1.3-1.1
			l36.6-33.6l-4.1-5.9c-0.5,2.3-3.4,3.8-5.4,5.2c-1.6,1.1-3.8,2.8-5.6,4.1c-11.5,7.9-24.9,15.9-39,20
			c-43.1,12.3-86.7-7.5-121.3-28.8c-6.6-3.9-40.5-27.7-45.1-34.3c-3.6-1.5-29.2-26.4-32.3-30.2c8-0.2,14.8,1,23.3,0
			c6.7-0.8,14.3-2.1,20.2-4.3c23.4-7.9,40.8-17.7,60-28.8c14.9-8.9,43.6-23.9,64.7-24.1c2.8-1.5,7.4-0.5,10.7-1.1
			c-7-0.3-36.6-16.2-81.3-3.3c-44.6,13-78.5,46.1-122.3,67.9c-25.1,12.5-44.7,17.7-77.2,17.9c1.6,3,27.9,23.9,29.7,25.4
			c67.9,53.1,177.7,119.2,264.6,70.3C584.6,584.5,589.4,580.9,590.8,581.3z"/>
		<path class="st5" d="M606.7,616.2c-3.3-2.8-10.7-3.3-15.6-12.6c-4.9-9.3-2.3-15.4-0.3-22.5c-1.3-0.3-6.1,3.4-8.4,4.8
			c-87,48.8-196.7-17.2-264.6-70.3c-1.8-1.5-27.9-22.5-29.7-25.4c32.5-0.2,52.1-5.4,77.2-17.9c43.6-21.8,77.5-54.9,122.3-67.9
			c44.9-13,74.4,3,81.3,3.3c-3.4,0.7-8-0.2-10.7,1.1c9.8-0.2,15.4-0.3,25.2,1.6c8,1.6,13.9,4.6,20.8,6.2c-0.8-1-1.1-1.1-2.8-2.3
			l-27.9-22.9c-2.5-2.1-7.4-8-9.3-9.2c-9.8-1.3-10.8-2.5-23.8-3.6c-25.9-2.1-47.9,1.8-71.5,11.3c-14.3,5.6-33.4,15.6-46.1,23.9
			l-59.8,38.4c-20.7,13.1-33.3,18.5-55.9,27.5c-9.5,3.8-23.1,6.9-33.8,8.5c-3.9,0.5-8.7,1.5-12.6,1.5c-5.9,0.2-6.7,0.5-12.3,0.5
			c-6.1,0-6.9-0.5-12.3-0.5c0.5,2.3,10.3,10,12.6,12.5c1.6,1.6,2.5,2.8,4.4,4.1c3,2.3,6.1,5.6,9,8c1.8,1.5,2.8,2.5,4.8,3.9l23.3,19
			c15.9,13,32.3,24.6,49.3,35.9c3.4,2.3,6.9,4.6,10.5,6.7c14.3,8.9,27.9,16.9,43.4,24.6c20.7,10.3,49.7,22.8,73.4,28.2
			c46.7,10.7,85.7,10.5,128.3-10.7c3.8-1.8,7.2-4.3,11-6.2h0.2L606.7,616.2L606.7,616.2z"/>
		<path class="st5" d="M603.6,572.2c3.6,1,3.9,6.6,6.7,10.3c13,18.7,46.7,11,42.5-22.8c-0.8-7.2-6.1-20-9.8-23.6l-36.6,33.6
			c-0.5,0.3-1,0.7-1.3,1.1C603.6,571.9,604.3,571.1,603.6,572.2z"/>
		<path class="st6" d="M718.2,217.8c10.5,12.9,20.8,32.9,22,49.5c0.3,5.9-0.8,4.4,1.8,8.5c3.6,0,3.6-0.3,5.2-2.8
			c8-12.1,16.2-28.5,16.2-43.9l-0.5-0.7l-22.5-25.7C736.1,204.4,723.4,215.1,718.2,217.8L718.2,217.8z"/>
		<path d="M709,206.5c1.1,2.1,2.8,3.8,4.6,5.6c1.5,1.3,3.9,4.3,4.8,5.9c5.4-2.8,18-13.4,22.5-15.1l22.5,25.7
			c-4.1-26.7-25.9-34.8-26.2-63.1c-1.1,0.8-0.3,0.2-1.1,1C723.3,177.9,709.5,206,709,206.5L709,206.5z"/>
		<path class="st5" d="M664.1,503.9c3.3,8,5.4,11.1,7.9,20.5c1.5,5.2,0.5,5.4,2.5,6.9c0.7-1,0.3-0.2,0.7-1.6l0.2-9.8
			c-0.2-3.4-0.5-6.9-1-10.3c-1-5.9-2.1-12.5-4.6-17.4C669.8,495.4,665.9,502.4,664.1,503.9L664.1,503.9z"/>
	</g>
	<g>
		<path class="st7" d="M373.2,701.6c-0.2,1.8-0.2,3.6-0.2,5.4c0,0.8-0.2,1.6-0.7,2.1c-0.2,0.3-0.5,0.5-1,0.5c-0.3,0-0.8-0.3-0.8-0.5
			c-0.3-1-0.7-2-0.8-3c-0.3-2.8-1-5.6-1.8-8.4c-0.5-2.1-1.5-4.3-2.1-6.2c-0.8-2.1-2.1-4.1-3.9-5.9c-3.3-3.3-7.5-4.1-11.8-2.3
			c-2.3,1-4.3,2.5-5.9,4.3c-3.1,3.4-5.1,7.5-6.2,12c-0.7,2.6-0.8,5.4-1,8c-0.2,5.7,1.1,11.1,3.8,16.2c2.3,4.8,5.2,9,8.5,13
			c3.3,3.9,6.6,7.7,9.8,11.6c3.6,4.3,6.7,9,9.2,14.1c1.3,2.8,2.1,5.6,2.8,8.5c0.2,0.8,0.2,1.5,0.3,2.3c0.3,3.1,0.3,6.2-0.2,9.3
			c-0.8,7.2-3.3,13.6-8,19.2c-3.6,4.3-8.2,6.7-13.8,7.7c-1,0.2-2.1,0.3-3.1,0.5c-2.8,0.5-5.4,0.2-8-0.7c-1.8-0.5-3.3-1.5-4.4-3
			c-1.3-1.8-1.6-3.8-1.1-5.9c0.2-0.8,1-1.6,2-1.6c1.3,0,2.5,0.2,3.9,0.5c2,0.5,4.1,1,6.1,1.5c3.4,0.8,6.9,0.5,10.5-0.3
			c3.1-1,5.6-2.8,7.4-5.4c2.8-4.3,3.6-9.2,3-14.3c-0.5-4.6-2-8.9-4.3-13c-2.5-4.4-5.6-8.5-9-12.3c-3.6-3.9-7.4-7.7-11-11.6
			c-3.9-3.9-6.9-8.5-9.5-13.4c-1.8-3.6-3.3-7.4-3.9-11.3c-0.3-2.1-0.5-4.4-0.5-6.6c-0.2-4.8,0.3-9.3,1.8-13.8
			c2.1-6.6,5.6-12.3,10.7-17c3.3-3.1,7-5.2,11.6-6.1c6.7-1.1,13.4,1.1,17.4,7c1.8,2.8,3,5.9,3.6,9C373,695,373,698.3,373.2,701.6z"
			/>
		<path class="st7" d="M392.3,740.6c0-4.1,0-8,0-12.1c0-3.1,0-6.2,0.5-9.3c0.2-1,0.2-1.8,0.2-2.8c-0.2-4.4,0.5-8.9,1-13.3
			c0.7-4.9,1.3-10,3-14.9c0.5-1.6,1-3.3,1.8-4.8c0.5-1.3,1.5-2.5,2.3-3.6c0.7-1,1.6-1.6,2.8-2.1c1.8-0.8,3.6-0.3,4.8,1.3
			c0.5,0.7,0.8,1.3,1.1,2c0.8,2.1,1.5,4.1,1.6,6.4c0.7,5.7,0.2,11.3-1.1,17c-2,7.9-4.6,15.4-8,22.8c-1.8,4.1-1.8,3-1.6,7.9
			c0.2,3.4,0.3,6.7,0.5,10.2c0.2,1.8,0.2,3.6,0.2,5.4c0.2,4.6,0.2,9.2,0.7,13.6c0.2,1.3,0.2,2.6,0.2,3.9c0.2,3,0.2,6.1,0.5,9
			c0.2,1.6,0.2,3.4,0.3,5.1c0.2,0.7,0.2,1.3,0.3,1.8c0.2,0.2,0.3,0.3,0.5,0.5c0.2,0.2,0.5,0,0.7-0.2c0.3-0.7,0.8-1.3,1.1-2.1
			c1.6-3.9,3.6-7.9,5.6-11.6c1.6-2.8,3.4-5.6,5.4-8c1.3-1.6,2.8-3.1,4.6-4.3c1-0.5,1.8-1,3-1c1.6-0.2,3.1,0.3,4.4,1.1
			c1.6,1.1,3,2.6,3.9,4.3c1,1.6,1.8,3.4,2.5,5.2c1.5,3.9,2.5,7.9,3.6,12c1.3,4.9,2.5,9.8,3.6,14.8c0.2,0.8,0.3,1.5,0.5,2.3
			c0.2,1.8-0.7,3.3-2.1,4.3c-1.5,1.1-3.9,0.8-4.8-0.8c-0.7-1.1-1.3-2.3-1.6-3.4c-1-2.5-1.8-5.2-2.5-7.9c-1.8-6.2-3.6-12.5-4.9-18.8
			c-0.3-1.5-0.8-3-1.5-4.4c-0.5-0.8-1-1.5-1.6-2.1c-1.1-1-2.8-1-3.9,0.3c-0.7,0.8-1.3,1.6-1.6,2.5c-0.8,1.6-1.5,3.3-2.1,4.9
			c-1.8,4.9-4.1,9.7-6.7,14.1c-0.8,1.5-1.8,2.8-3,4.1c-0.5,0.7-1.3,1.3-2.1,1.8c-2.3,1.5-4.9,1-6.6-1.5c-0.5-0.8-0.8-1.6-1.1-2.5
			c-0.5-1.8-1.1-3.8-1.5-5.6c-0.3-2.5-1-4.8-1-7.4c-1-5.2-0.7-10.7-1.3-15.9c-0.3-1.8-0.2-3.9-0.2-5.9
			C392.3,749.3,392.3,744.8,392.3,740.6L392.3,740.6z M407.3,691.9c-0.2-2.1-0.2-4.4-0.2-6.6c0-1.3-0.3-2.5-1-3.6
			c-0.5-1.1-2.1-1.3-3-0.3c-0.3,0.3-0.7,0.8-0.8,1.3c-0.3,1.1-0.8,2.1-1.1,3.3c-0.8,4.1-1.5,8.2-1.5,12.3c0,6.7,0.2,13.6,0.5,20.2
			c0,0.3,0.2,0.8,0.3,1.1c0.2,0.3,0.3,0.5,0.5,0.3c0.2,0,0.3,0,0.3-0.2c0.3-0.3,0.7-0.8,0.8-1.3
			C405.3,709.8,407.4,701.1,407.3,691.9z"/>
		<path class="st7" d="M482.8,756.8c0.2-2.3,0.2-4.8,0.2-7c0-0.7,0.3-1.1,0.8-1.6c0.3-0.3,1-0.5,1.5-0.2c0.3,0.3,0.8,0.8,1,1.1
			c0.7,1.5,1.1,2.8,1.6,4.3c2.1,6.1,3.8,12.5,5.4,18.7c0.8,3,1.6,5.7,2.5,8.7c0.3,0.8,0.8,1.6,1.1,2.5c0.3,0.7,1.5,0.8,2.1,0.3
			c0.8-0.5,1.5-1.1,2-1.8c1.3-1.8,2.8-3.9,4.1-5.7c2.1-3.1,4.3-6.2,6.7-9.2c0.8-1,1.5-1.8,2.3-2.6c1.5-1.5,3.3-2.1,5.2-2.1
			c1.8-0.2,3.6,0.5,4.9,1.8c1.8,1.6,3.3,3.4,4.3,5.6c1.1,2.3,2.3,4.8,3.3,7c0.5,1.1,1,2.3,1.6,3.6c0.3,0.5,0.7,1.1,1,1.6
			c0.8,1.1,2.5,1.5,3.4,0.5c1.1-0.8,2.1-1.8,3.1-3c1.6-1.6,3-3.6,4.6-5.4c1.3-1.6,2.8-3.1,4.6-4.3c1.3-1,2.8-1.1,4.4-1
			c0.8,0.2,1.5,0.3,2.1,1c0.8,0.8,1.6,1.8,2.1,2.8c1,1.8,1.8,3.6,2.6,5.6c2.5,6.1,3.9,12.3,5.4,18.7c0.5,2.8,1,5.4,0.8,8
			c0,0.5-0.2,1-0.3,1.5c-0.2,0.8-1.3,1.5-2.1,1.1c-1-0.2-1.6-0.7-2.3-1.3c-1-1-1.5-2.1-2.1-3.3c-1.3-2.8-2.1-5.9-2.8-9
			c-1-4.1-2.1-8.4-3.1-12.5c-0.3-1.1-0.7-2.3-1.1-3.3c-0.3-0.5-0.7-1.1-1-1.6c-1-1-2.3-1.3-3.6-0.8c-1.3,0.5-2.3,1.3-3.1,2.3
			c-2.1,2.5-4.1,5.1-6.1,7.5c-1.5,1.8-3,3.6-4.8,5.2c-0.8,0.7-1.6,1.1-2.5,1.8c-0.8,0.5-1.5,0.3-2.1-0.2c-1-0.7-1.6-1.6-2.3-2.6
			c-1.1-2.3-2.1-4.8-3.3-7.2c-1-2.3-2-4.8-3-7.2c-0.5-1-1-2.1-1.6-3.1c-0.5-0.8-1.1-1.5-1.8-2.1c-1.3-1.1-3.3-1.1-4.8-0.2
			c-1.1,0.8-2.1,2-2.8,3.3c-1.8,3.3-3.6,6.6-5.4,9.8c-2.3,4.1-4.6,8.2-6.9,12.3c-0.8,1.1-1.6,2.3-2.5,3.6c-0.7,0.8-1.5,1.5-2.3,2
			c-1,0.5-2.1,0.3-2.8-0.5c-0.8-1-1.1-2.1-1.5-3.3c-1.5-4.6-2.8-9.2-3.6-13.9c-0.8-3.9-1.8-7.9-2.3-11.8
			C483.3,766.6,482.5,761.7,482.8,756.8z"/>
		<path class="st7" d="M583.5,758.8c-0.2-3-0.2-5.9,0.2-9c0.2-1.5,0.5-2.1,1.3-2.1c1.1,0,1.5,1,1.8,1.6c0.5,1,0.8,1.8,1.1,3
			c1,3.3,2.1,6.4,3,9.7c1.3,4.8,2.6,9.5,3.9,14.3c0.5,1.8,1,3.8,1.6,5.6c0.2,0.5,0.7,1.1,1,1.6c0.3,0.3,1.1,0.5,1.5,0.3
			c0.5-0.3,1.1-0.7,1.5-1.1c1-1.1,1.8-2.3,2.6-3.4c1.6-2.3,3.1-4.6,4.6-6.7c1.5-2.1,3.1-4.1,4.8-6.2c0.7-0.8,1.5-1.5,2.1-2.3
			c1.5-1.5,3.4-2,5.4-2c1.6,0,3,0.5,4.3,1.5c2,1.6,3.6,3.8,4.8,6.1c1.3,2.8,2.5,5.4,3.8,8c0.3,0.8,0.8,1.6,1.1,2.5
			c0.3,0.5,0.8,1,1.1,1.5c0.7,0.8,2.1,1,3,0.3c0.8-0.7,1.6-1.1,2.3-2c1.6-1.6,3.1-3.6,4.6-5.2c1.1-1.1,2.3-2.6,3.4-3.8
			c0.7-0.7,1.5-1.1,2.1-1.6c1.1-0.8,2.6-1.1,4.1-1.1c1.1,0.2,2.1,0.5,2.8,1.3c0.5,0.5,1,1.1,1.5,1.8c1,1.6,1.8,3.4,2.6,5.2
			c2.3,5.6,3.9,11.6,5.2,17.5c0.5,2.3,1,4.6,1.3,6.9c0.2,1.3,0.2,2.6,0.2,3.9c0,0.5-0.3,1.1-0.8,1.8c-0.3,0.5-1.1,0.8-1.6,0.7
			c-1-0.2-1.8-0.7-2.3-1.3c-0.7-0.8-1.1-1.6-1.8-2.5c-1.5-2.6-2.3-5.6-3-8.5c-1-4.1-2.1-8.4-3.1-12.5c-0.3-1.1-0.7-2.5-1.1-3.8
			c-0.3-0.8-0.8-1.6-1.3-2.3c-0.8-1.1-2.3-1.5-3.4-1c-0.8,0.3-1.6,0.8-2.3,1.5c-0.8,0.8-1.6,1.8-2.3,2.6c-1.8,2.3-3.8,4.8-5.6,7
			c-1.5,1.8-2.8,3.4-4.6,4.8c-2.5,2-3.6,2-5.7-1c-0.7-1-1.1-2.1-1.6-3.1c-0.8-2.1-1.6-4.1-2.5-6.1c-1-2.5-2-4.8-3-7.2
			c-0.5-1.3-1.3-2.5-2.5-3.4c-1.5-1.5-3.8-1.5-5.4-0.2c-1.1,1-2,2.1-2.6,3.4c-2.1,3.9-4.3,7.7-6.4,11.6c-2,3.4-4.1,6.9-6.1,10.5
			c-0.7,1.1-1.5,2.1-2.1,3.3c-0.7,0.8-1.5,1.5-2.3,2c-1,0.5-2.1,0.3-2.8-0.5c-0.5-0.7-0.8-1.3-1.1-2.1c-1-3-1.8-6.1-2.6-9
			c-1.5-5.2-2.6-10.3-3.4-15.6c-0.5-3.3-1.1-6.7-1.1-10C583.6,762.2,583.5,760.4,583.5,758.8z"/>
		<path class="st7" d="M685.3,749.4c0-3.1,0-6.7,0-10.3c0-1.3,0.2-2.6,0.3-3.9c0.2-1.5,2.5-2.3,3.6-1.5c0.3,0.2,0.5,0.5,0.8,0.8
			c0.3,0.8,0.5,1.5,0.7,2.3c0.2,0.5,1,1,1.6,0.8c1-0.3,2-0.5,3-0.8c2.8-0.8,5.4-1.6,8.4-2.1c2.1-0.5,4.4-0.5,6.6-0.7
			c0.3,0,0.8,0.2,1.1,0.2c1.5,0.2,2.3,1,3,2.1c0.8,1.6,0.2,3.3-1.6,3.6c-1.8,0.3-3.9,0.5-5.7,1c-3.1,0.7-6.1,1.6-8.9,2.8
			c-1,0.5-2.1,1-3.1,1.6c-1.1,0.8-1.8,2-1.6,3.3c0.3,3,0.3,5.9,0.8,9c0.5,3.3,0.8,6.6,1.1,9.7c0.3,2.3,0.5,4.6,0.8,6.9
			c0.3,3.3,0.8,6.4,1.1,9.7c0.5,5.1,1.1,10,1.3,15.1c0,1-0.2,1.8-0.3,2.8c-0.2,0.8-0.8,1.5-1.6,1.6c-2.1,0.5-4.1,0.2-5.7-1.5
			c-0.7-0.8-1.3-1.6-1.6-2.6c-0.5-1.1-1.1-2.5-1.1-3.6c-0.3-2.5-1-5.1-1-7.7c0-3.3-0.2-6.6-0.5-9.7c0-0.3-0.2-0.5-0.2-0.8
			c-0.3-6.9-0.7-13.8-1-20.7C685.3,754.4,685.3,752.1,685.3,749.4z"/>
		<path class="st7" d="M466.3,794c0,2.8,0,5.4,0,8.2c0,1-0.2,1.8-0.2,2.8c-0.2,0.7-0.5,1.1-1.1,1.5c-1.8,0.8-3.4,0.8-5.2-0.2
			c-0.8-0.3-1.1-1-1.5-1.8c-0.2-0.5-0.2-1-0.3-1.5c-0.2-1.6-0.3-3.4-0.5-5.1c0-0.2,0-0.3-0.2-0.3c-0.3-4.8-0.7-9.3-0.8-14.1
			c-0.2-3.1-0.2-6.2,0-9.3c0-1.8,0.2-3.6,0.3-5.4c0.2-2.5,0.3-4.9,0.3-7.4c0-2.6,0.5-5.2,0.8-7.7c0.2-1,0.5-1.6,1.3-2.3
			c0.7-0.5,1.6-0.3,2,0.3c0.3,0.5,0.5,1.1,0.7,1.8c0.7,3.8,1.1,7.4,1.8,11.1c0.5,3.4,1,6.7,1.3,10c0.2,1,0.2,1.8,0.2,2.8
			c0.2,1.8,0.3,3.6,0.5,5.4c0.2,1.1,0.2,2.3,0.3,3.4c0.2,2.6,0.2,5.2,0.2,7.9C466.3,794,466.3,794,466.3,794z"/>
		<path class="st8" d="M461.3,729.6c0.2,2.8-2.3,5.1-4.6,5.4c-1.1,0.2-2.5-0.3-3-1.3c-1.1-2.1-1.5-4.4-0.3-6.7
			c1.1-2.3,3.4-2.8,5.2-2.1c0.5,0.2,1,0.5,1.3,0.8C460.9,726.8,461.3,728.1,461.3,729.6z"/>
	</g>
	<g>
		<path class="st7" d="M365.8,868.9c1,0.7,2.1,1.1,3,1.5c1,0.3,2,0.5,3,0.5c1.3,0,2.3-0.3,3.1-1c0.8-0.7,1.1-1.5,1.1-2.5
			c0-1.6-1.5-2.8-4.1-3.9c-0.8-0.3-1.1-0.5-1.6-0.7c-1.5-0.5-2.6-1.3-3.4-2.3c-0.8-1-1.1-2.1-1.1-3.3c0-1.6,0.5-2.9,1.8-4.1
			c1.1-1,2.8-1.6,4.8-1.6c0.8,0,1.8,0.2,2.6,0.3c0.8,0.3,1.8,0.8,2.8,1.3v2.3c-1-0.7-2-1.1-3-1.5s-1.8-0.5-2.8-0.5
			c-1.1,0-2.1,0.3-3,1c-0.8,0.7-1.1,1.5-1.1,2.5c0,1,0.3,1.6,1,2.3c0.7,0.5,2.1,1.1,3.9,2c2.1,0.8,3.4,1.5,4.3,2.3
			c0.8,0.8,1.1,2,1.1,3.4c0,1.8-0.5,3.3-1.8,4.3s-2.8,1.6-4.9,1.6c-1,0-2.1-0.2-3-0.5c-1-0.3-1.8-0.8-3-1.3v-2.3h0.3L365.8,868.9
			L365.8,868.9z"/>
		<path class="st7" d="M417.6,867.6c0,1.5,0.2,2.3,0.5,2.8c0.3,0.5,1,0.7,2,0.7c0.5,0,1-0.2,1.6-0.3c0.5-0.2,1.1-0.5,1.8-0.8v2.3
			c-0.7,0.3-1.1,0.5-1.8,0.7c-0.7,0.2-1.1,0.2-1.8,0.2c-1.6,0-3-0.3-3.6-1.1c-0.7-0.8-1-2.3-1-4.3v-13.4H411v-1.8h4.4v-4.6l1.6-2
			h0.5v6.7h5.4v1.8h-5.4L417.6,867.6L417.6,867.6z"/>
		<path class="st7" d="M472,869.6c-1,1.1-2.1,2.1-3.3,2.6c-1.1,0.5-2.5,0.8-3.9,0.8c-2.3,0-4.1-0.8-5.4-2.1
			c-1.3-1.5-1.8-3.4-1.8-6.1v-12.5h2.3v11.3c0,2.5,0.5,4.3,1.3,5.4c0.8,1.1,2.1,1.8,3.9,1.8c1.5,0,2.8-0.3,3.9-1
			c1.1-0.7,2.1-1.8,3-3.3v-14.4h2.3v20.5H472V869.6L472,869.6z"/>
		<path class="st7" d="M525.6,871.1c-0.8,0.7-1.6,1.1-2.6,1.5c-1,0.3-2,0.5-3.1,0.5c-3,0-5.4-1-7.2-3c-1.8-2-2.8-4.6-2.8-7.7
			s1-5.7,2.8-7.5c1.8-1.8,4.3-3,7.2-3c1.1,0,2.1,0.2,3.1,0.5c1,0.3,1.8,0.8,2.6,1.5v-12h2.1v30.8h-2.1V871.1z M525.6,868.8v-12.5
			c-0.8-0.8-1.6-1.3-2.5-1.6c-0.8-0.3-1.8-0.5-3-0.5c-2.3,0-4.1,0.8-5.6,2.3c-1.5,1.6-2.1,3.6-2.1,6.2s0.8,4.6,2.1,6.2
			c1.5,1.6,3.3,2.3,5.6,2.3c1.1,0,2.1-0.2,3-0.5C524.1,870.1,524.9,869.4,525.6,868.8z"/>
		<path class="st7" d="M565.3,845.5v-3.8h2.3v3.8H565.3z M565.3,872.7v-20.5h2.3v20.5H565.3z"/>
		<path class="st7" d="M603.3,862.5c0-3,1-5.4,3.1-7.5c2.1-2.1,4.6-3.1,7.5-3.1c2.9,0,5.4,1,7.5,3.1c2.1,2.1,3.1,4.6,3.1,7.5
			c0,1.5-0.3,2.8-0.8,4.1c-0.5,1.3-1.3,2.5-2.3,3.4c-1,1-2.1,1.8-3.4,2.3c-1.3,0.5-2.6,0.8-4.1,0.8c-3,0-5.4-1-7.5-3.1
			C604.4,867.8,603.3,865.3,603.3,862.5z M605.9,862.5c0,2.3,0.8,4.3,2.3,6.1c1.5,1.8,3.4,2.5,5.7,2.5c2.3,0,4.1-0.8,5.7-2.5
			c1.6-1.6,2.3-3.6,2.3-6.1c0-2.3-0.8-4.4-2.3-6.1c-1.6-1.6-3.4-2.5-5.7-2.5c-2.3,0-4.3,0.8-5.7,2.5
			C606.7,858.1,605.9,860.1,605.9,862.5z"/>
		<path class="st7" d="M659,868.9c1,0.7,2.1,1.1,3,1.5c1,0.3,2,0.5,2.9,0.5c1.3,0,2.3-0.3,3.1-1c0.8-0.7,1.1-1.5,1.1-2.5
			c0-1.6-1.5-2.8-4.1-3.9c-0.8-0.3-1.1-0.5-1.6-0.7c-1.5-0.5-2.6-1.3-3.4-2.3c-0.8-1-1.1-2.1-1.1-3.3c0-1.6,0.5-2.9,1.8-4.1
			c1.1-1,2.8-1.6,4.8-1.6c0.8,0,1.8,0.2,2.6,0.3c0.8,0.3,1.8,0.8,2.8,1.3v2.3c-1-0.7-2-1.1-2.9-1.5c-1-0.3-1.8-0.5-2.8-0.5
			c-1.1,0-2.1,0.3-3,1c-0.8,0.7-1.1,1.5-1.1,2.5c0,1,0.3,1.6,1,2.3c0.7,0.5,2.1,1.1,3.9,2c2.1,0.8,3.4,1.5,4.3,2.3
			c0.8,0.8,1.1,2,1.1,3.4c0,1.8-0.5,3.3-1.8,4.3c-1.3,1-2.8,1.6-4.9,1.6c-1,0-2.1-0.2-3-0.5c-1-0.3-1.8-0.8-3-1.3v-2.3h0.3
			L659,868.9L659,868.9z"/>
	</g>
	<text transform="matrix(1 0 0 1 364.3262 803.042)" class="st9 st10 st11 st12">studios</text>
</g>
</svg>
