<?xml version="1.0" encoding="utf-8"?>
<!-- Generator: Adobe Illustrator 16.0.0, SVG Export Plug-In . SVG Version: 6.00 Build 0)  -->
<!DOCTYPE svg PUBLIC "-//W3C//DTD SVG 1.1//EN" "http://www.w3.org/Graphics/SVG/1.1/DTD/svg11.dtd">
<svg version="1.1" id="Layer_1" xmlns="http://www.w3.org/2000/svg" xmlns:xlink="http://www.w3.org/1999/xlink" x="0px" y="0px"
	 width="600px" height="600px" viewBox="0 0 600 600" enable-background="new 0 0 600 600" xml:space="preserve">
<g id="Layer_x0020_1">
	
		<radialGradient id="SVGID_1_" cx="594.8486" cy="-135.1411" r="109.1098" gradientTransform="matrix(1 0 0 -1.2 -266 236.9814)" gradientUnits="userSpaceOnUse">
		<stop  offset="0.2806" style="stop-color:#557BBD"/>
		<stop  offset="1" style="stop-color:#305393"/>
	</radialGradient>
	<path fill="url(#SVGID_1_)" d="M458.4,416.2c1.8-1.4,5.5-8.1,5.6-11.3c-6.4-20.9-27.4-47.1-43.6-58.7l-19.7-13.9
		c-6.6-1.7-12.3-4.5-20.1-6.1c-9.4-1.9-14.8-1.5-24.4-1.5c-20.4,0.1-48.1,14.7-62.5,23.2c-18.5,10.9-57.9,27.9-57.9,27.9
		c-0.8,2.8-0.9,2.8-0.1-0.1c-5.8,2.1-13.2,3.4-19.5,4.1c-8.5,1-14.7-0.1-22.5,0c3.1,3.6,27.7,27.7,31.1,29v0.1
		c1.7-3.5,1.9-3.5,0.1,0.1c4.4,6.3,37.1,29.1,43.5,33c33.5,20.5,75.5,39.7,117,27.9c13.4-3.8,26.5-11.5,37.6-19.2
		c1.8-1.3,3.8-2.7,5.4-4 M426.9,436c-0.4,0.5-0.7,0.9-1.1,1.3C426.1,436.8,426.5,436.4,426.9,436L426.9,436z"/>
	<path fill="#E8E7E3" d="M362.1,299.1c2,1,6.6,6.6,9.1,8.8l26.9,22.1c1.5,1.1,1.7,1.3,2.7,2.3l19.7,13.9
		c16.2,11.7,37.2,37.9,43.6,58.7c2.4,4.8,3.5,11.1,4.4,16.8c0.5,3.2,0.8,6.5,1,9.9l-0.2,9.4c-0.4,1.5,0,0.5-0.6,1.5
		c-2.1-1.3-1.1-1.5-2.4-6.6c-2.4-9-4.5-12-7.6-19.8c-1.4-1.9-2.5-4.1-3.7-6.2c-1.1-1.8-3.2-4.3-3.6-6.2l-15.2-17.6
		c-2.1-2.7-5.4-6-7.7-8.3c-2.9-2.9-5.7-5.3-8.5-8.1c-6.3-6.2-27.7-24.3-37.1-27.9c-6.2,4.1-6.9,8.9-10.4,16.2
		c-4.2,26.4,7.1,36.9,25.8,51.6l15.1,11.5c4.7,3.6,13.1,10.6,15.8,15.1c1.5,0.3,1.4,0.8,2.4,2.2c1,1.3,1.6,1.7,2.5,3l3.9,5.7
		c3.7,3.5,8.7,16,9.5,22.8c4,32.7-28.5,40.1-41,22c-2.5-3.6-2.8-9-6.4-10c-3.4,0.5-5.3,1.5-7.3,3.1c-2.4,2-3.2,3.7-5.1,5.5
		c-1.8,6.8-4.5,12.6,0.3,21.6c4.8,9,12,9.5,15.1,12.2c8.3,0.2,9.9,1.9,20.9-2.8c8.4-3.6,13.2-9,18.4-13c6.5-5.1,9.4-10.6,15.9-16.1
		c2.4-2,5.1-3.6,7.5-5.4c17.5-13.2,28.4-50.2,28.3-73.3c-0.1-18.1,0-28.4-4.4-45.8c-3.2-12.9-8.3-26.4-14.3-36.5
		c-3.4-5.6-6-10.5-10.2-15.2c-8-9.1-16.9-18.3-29.2-21.6c-8.6-2.4-14.6-1.3-22.3,0.5c-0.9-1.4-16.9-13.6-22-18.8
		c-1.5-1.5-2.4-2-3.8-3.3l-15.7-18.4c-4.1-5.7-7.3-10.9-10.5-17.3c-5.9-11.8-10.6-27-11.1-44c-0.1-2.9-0.5-3-0.6-5.9l1.5-19.2
		c5.5-38.6,29.4-65,69.4-68.2c30.8-2.4,51.9,6.5,73.3,23c2.3,1.7,5.4,5.3,7.7,6.4c0.4-0.5,13.6-27.6,25.7-38.6
		c0.8-0.8,0-0.2,1.2-0.9c0.2,27.2,21.3,35,25.2,60.8l0.5,0.6c0-6.7,0.1-12-0.8-17.9c-3.8-22.9-17.4-45.9-35.8-60
		c-7.2-5.4-15.1-10.6-24.2-14.2c-20.5-8.2-45.4-8.7-65.9-2.5c-13.6,4.1-26.8,10.9-38,19.3l-10.6,8.8c-2,2-3.2,2.6-5,4.4
		c-6.1,5.8-16.6,19.7-21,26.3c-2.5,3.8-5.3,7.9-7.4,12.1C335.1,148.4,330,161.2,326,185c-1.6,9.7-2.3,25.1-0.8,36
		c2.7,19.1,4.6,27.1,13.2,44.2c4.1,8.2,6.4,11.1,11.1,17.9C353.3,288.8,357.7,293.3,362.1,299.1L362.1,299.1z"/>
	<path fill="#68C39D" d="M387.5,490.8c1.9-1.8,2.6-3.5,5.1-5.5c2-1.6,3.9-2.4,7.3-3.1c0.8-1.1,0.1-0.4,1.3-1.4
		c0.5-0.4,0.9-0.7,1.3-1.1l35.3-32.4l-3.9-5.7c-0.5,2.2-3.4,3.6-5.3,5.1c-1.6,1.2-3.6,2.7-5.4,4c-11.1,7.6-24,15.3-37.6,19.2
		c-41.6,11.9-83.6-7.3-117-27.9c-6.3-3.8-39.1-26.7-43.5-33c-3.5-1.5-28.1-25.4-31.1-29c7.8-0.1,14.2,0.9,22.5,0
		c6.4-0.7,13.7-2,19.5-4.1c22.7-7.6,39.3-17.1,57.8-27.9c14.4-8.5,42-23.1,62.5-23.2c2.6-1.4,7.1-0.5,10.3-1.2
		c-6.8-0.3-35.3-15.7-78.5-3.2c-43,12.4-75.8,44.4-117.8,65.4c-24.1,12.1-43.1,17.1-74.4,17.2c1.6,2.9,26.9,23.1,28.6,24.5
		c65.4,51.2,171.3,114.9,255.1,67.8C381.6,494.1,386.2,490.5,387.5,490.8z"/>
	<path fill="#50AEA0" d="M402.9,524.4c-3.1-2.6-10.3-3.1-15.1-12.2c-4.8-9-2.2-14.8-0.3-21.6c-1.3-0.3-5.9,3.4-8,4.5
		c-83.9,47.2-189.7-16.6-255.2-67.8c-1.7-1.4-26.9-21.6-28.6-24.5c31.3-0.2,50.3-5.2,74.4-17.2c42-21,74.8-53,117.8-65.4
		c43.3-12.5,71.8,2.9,78.5,3.2c-3.3,0.6-7.7-0.2-10.3,1.2c9.5-0.1,14.9-0.4,24.4,1.5c7.8,1.5,13.4,4.4,20.1,6.1
		c-0.8-1-1.2-1.2-2.7-2.3L371,307.9c-2.4-2.1-7.1-7.8-9.1-8.8c-9.5-1.3-10.4-2.4-23-3.4c-24.9-2-46.1,1.7-68.9,10.9
		c-13.8,5.4-32.2,15.1-44.4,23L168,366.5c-20,12.6-32,17.9-53.9,26.5c-9.2,3.6-22.3,6.6-32.6,8.3c-3.8,0.5-8.4,1.5-12.2,1.5
		c-5.7,0.1-6.4,0.5-11.8,0.5c-5.8,0-6.7-0.5-11.8-0.5c0.5,2.2,10,9.7,12.2,12c1.6,1.6,2.4,2.7,4.3,4c2.9,2.2,5.8,5.4,8.7,7.8
		c1.7,1.5,2.7,2.5,4.5,3.8l22.4,18.3c15.3,12.4,31.1,23.7,47.5,34.7c3.4,2.3,6.6,4.4,10.1,6.5c13.7,8.5,26.9,16.2,41.8,23.7
		c20,10,47.9,22,70.9,27.2c45.1,10.3,82.7,10.1,123.7-10.3c3.6-1.8,7-4.1,10.6-6H402.9L402.9,524.4z"/>
	<path fill="#50AEA0" d="M399.8,482.2c3.5,0.9,3.8,6.3,6.4,10c12.5,18.1,45,10.6,41-22c-0.8-6.9-5.8-19.2-9.5-22.8l-35.3,32.4
		c-0.5,0.4-0.9,0.6-1.3,1.1C399.9,481.8,400.6,481.1,399.8,482.2z"/>
	<path fill="#F36C21" d="M510.4,140.4c10.1,12.4,20.1,31.8,21.2,47.7c0.4,5.7-0.8,4.3,1.8,8.3c3.4,0,3.4-0.4,5-2.7
		c7.7-11.7,15.7-27.5,15.7-42.4l-0.5-0.6l-21.7-24.8C527.7,127.4,515.5,137.7,510.4,140.4L510.4,140.4z"/>
	<path fill="#010101" d="M501.5,129.4c1.1,2,2.6,3.6,4.4,5.4c1.4,1.3,3.7,4.1,4.5,5.6c5.3-2.7,17.3-13,21.6-14.5l21.7,24.8
		c-3.9-25.8-25-33.6-25.2-60.8c-1.2,0.7-0.3,0.1-1.2,0.9C515.2,101.9,502,129,501.5,129.4L501.5,129.4z"/>
	<path fill="#50AEA0" d="M458.3,416.2c3.2,7.8,5.2,10.8,7.6,19.8c1.4,5,0.5,5.3,2.5,6.6c0.6-0.9,0.3-0.1,0.6-1.5l0.2-9.4
		c-0.1-3.4-0.5-6.7-1-9.9c-0.9-5.6-2.1-12-4.4-16.8C463.8,408,460,414.8,458.3,416.2L458.3,416.2z"/>
</g>
</svg>
